<?xml version="1.0" encoding="UTF-8" standalone="no"?>
<!-- Created with Inkscape (http://www.inkscape.org/) -->

<svg
   width="300mm"
   height="100mm"
   viewBox="0 0 300 100"
   version="1.1"
   id="svg11376"
   inkscape:version="1.1.1 (3bf5ae0d25, 2021-09-20)"
   sodipodi:docname="logo.svg"
   inkscape:export-filename="C:\Users\FrancescoCottone\Desktop\KesieV\stuff-2022\obscure\markdown\logo.png"
   inkscape:export-xdpi="69.379997"
   inkscape:export-ydpi="69.379997"
   xmlns:inkscape="http://www.inkscape.org/namespaces/inkscape"
   xmlns:sodipodi="http://sodipodi.sourceforge.net/DTD/sodipodi-0.dtd"
   xmlns="http://www.w3.org/2000/svg"
   xmlns:svg="http://www.w3.org/2000/svg">
  <sodipodi:namedview
     id="namedview11378"
     pagecolor="#ffffff"
     bordercolor="#666666"
     borderopacity="1.0"
     inkscape:pageshadow="2"
     inkscape:pageopacity="0.0"
     inkscape:pagecheckerboard="0"
     inkscape:document-units="mm"
     showgrid="false"
     inkscape:zoom="0.76435188"
     inkscape:cx="651.53238"
     inkscape:cy="93.543303"
     inkscape:window-width="1920"
     inkscape:window-height="1017"
     inkscape:window-x="1912"
     inkscape:window-y="-8"
     inkscape:window-maximized="1"
     inkscape:current-layer="g9720" />
  <defs
     id="defs11373">
    <filter
       inkscape:collect="always"
       style="color-interpolation-filters:sRGB"
       id="filter871"
       x="-0.071534644"
       y="-0.25361994"
       width="1.1430693"
       height="1.5072399">
      <feGaussianBlur
         inkscape:collect="always"
         stdDeviation="8.3053636"
         id="feGaussianBlur873" />
    </filter>
    <filter
       inkscape:collect="always"
       style="color-interpolation-filters:sRGB"
       id="filter1136"
       x="-0.027415348"
       y="-0.23027848"
       width="1.0548307"
       height="1.460557">
      <feGaussianBlur
         inkscape:collect="always"
         stdDeviation="2.2579802"
         id="feGaussianBlur1138" />
    </filter>
  </defs>
  <g
     inkscape:label="Livello 1"
     inkscape:groupmode="layer"
     id="layer1">
    <g
       id="g27238"
       transform="translate(-3.4678008e-5,1.9046683)">
      <ellipse
         style="opacity:0.24158416;fill:#000000;fill-opacity:1;stroke-width:7.3823;stroke-linecap:round;paint-order:stroke fill markers;filter:url(#filter871)"
         id="path847"
         cx="150.00003"
         cy="48.095329"
         rx="139.32321"
         ry="39.296738"
         transform="matrix(0.89607728,0,0,0.73718203,14.60934,17.046136)" />
      <path
         id="path8082"
         style="display:inline;fill:#000000;fill-opacity:1;stroke:#ffffff;stroke-width:6.00001;stroke-linecap:square;stroke-miterlimit:4;stroke-dasharray:none;stroke-opacity:1;paint-order:stroke fill markers"
         d="m 120.34079,28.335589 c -0.21059,-0.0062 -4.48918,10.853206 -4.33625,11.005672 0.0605,0.06037 3.15252,0.296135 6.87084,0.523983 7.86142,0.481758 11.61724,0.57762 11.61724,0.296653 0,-0.20934 -4.11425,-10.746701 -4.24884,-10.882048 -0.0427,-0.04289 -1.16128,1.503434 -2.48583,3.436213 -1.32451,1.932759 -2.52841,3.5881 -2.67523,3.678545 -0.1468,0.09047 -1.23532,-1.684741 -2.41913,-3.9448 -1.1838,-2.260057 -2.22909,-4.111521 -2.3228,-4.114218 z m 25.93575,2.502887 c -1.82059,0.04903 -1.76299,0.500371 -1.92036,1.409917 -0.16749,0.967895 -1.32087,13.181135 -1.32524,14.033352 -0.002,0.297754 0.85086,1.008148 2.16142,1.801373 l 2.16345,1.309408 0.50936,-4.882172 c 0.28005,-2.685191 0.5676,-5.095475 0.63942,-5.35592 0.11207,-0.406355 0.96826,-0.503482 6.03302,-0.686513 3.2462,-0.117295 5.96533,-0.150494 6.04236,-0.07377 0.0771,0.07678 -0.14121,2.801284 -0.48455,6.054591 -0.34335,3.253329 -0.57202,6.070651 -0.50855,6.260467 0.0651,0.194795 2.86225,0.879295 6.42205,1.571596 3.46879,0.674602 6.54965,1.239502 6.84603,1.255894 0.51125,0.02808 0.52958,-0.282647 0.36343,-6.059053 -0.0964,-3.348879 -0.24981,-7.838639 -0.34149,-9.977085 l -0.16665,-3.888072 h 0.67115 c 0.38766,0 0.5529,-0.10383 0.39144,-0.246004 -0.15378,-0.135411 -6.59246,-0.821777 -14.30832,-1.524993 -7.6688,-0.698899 -11.36741,-1.052031 -13.18797,-1.003023 z m 100.67906,1.192689 -5.64,13.804823 -6.93012,-13.066439 c 0,0 -2.01062,-0.01349 -4.36509,0.103747 l -4.28096,0.213572 0.61376,48.258526 9.16921,0.479926 0.51921,-15.521702 c 0.29356,-8.775887 0.10725,-15.964818 0.23861,-15.964818 1.65023,2.473794 3.48314,4.610803 4.95606,7.431469 l 5.80589,-10.044992 c 0.0697,0.226956 0.55323,8.071548 1.07441,17.432281 0.52118,9.360724 1.0063,17.083003 1.07807,17.160752 l 9.12003,1.140398 c 0.49004,0.05489 0.63843,-2.235595 0.8248,-12.725998 0.20657,-12.730355 0.59677,-25.069724 0.59677,-37.853744 l -6.27285,-0.554401 z m -63.27042,1.580916 -9.5103,1.278595 0.16951,2.515461 c 0.0933,1.383482 0.3969,11.936134 0.67442,23.450393 l 0.50448,20.934512 3.84149,-0.108184 c 4.12926,-0.116442 5.38653,-0.484307 6.09684,-1.78355 0.43006,-0.786603 0.52099,-9.170354 0.14634,-13.486666 l -0.24755,-2.852225 2.01384,0.178318 c 1.1075,0.09809 3.53671,0.325289 5.39845,0.504956 l 3.38502,0.326638 0.48983,6.16199 c 0.26947,3.389239 0.50172,6.714006 0.51546,7.388292 l 0.0248,1.225911 1.54556,0.157246 c 0.84994,0.08646 2.83669,0.23602 4.4151,0.332315 l 2.86997,0.175063 1.43502,-44.27145 0.28985,-0.953577 -12.46022,-1.60744 0.1389,25.669376 -3.0171,0.0024 c -1.65937,0 -4.09371,0.08553 -5.40985,0.187634 l -2.39271,0.185603 -0.91717,-25.611228 z m 30.34526,-3.06645 c -1.73442,0.651817 -2.30928,6.386347 -2.08388,7.593935 l 10.13794,0.366037 c 0.86631,-0.715282 1.22735,-5.100699 0.86476,-6.704356 -0.66209,-2.928342 -7.91386,-2.385703 -8.91882,-1.255616 z m -108.23578,5.62283 -4.1212,0.18805 c -2.266617,0.103394 -6.557427,0.450407 -9.535103,0.771212 -2.977697,0.320805 -7.149847,0.649411 -9.27168,0.730272 -2.121833,0.08089 -4.884466,0.229094 -6.139112,0.329084 l -2.281325,0.181557 -0.0064,1.069876 c -0.0098,1.680054 1.768259,38.162933 1.940675,39.821282 l 0.154477,1.48447 5.464303,-0.661784 c 3.00542,-0.363983 5.505764,-0.702691 5.556174,-0.752968 0.05043,-0.05027 -0.179453,-3.827088 -0.510572,-8.392541 -0.331118,-4.565454 -0.550241,-8.352187 -0.48699,-8.415222 0.06324,-0.06305 1.43718,0.07153 3.052874,0.299472 1.615717,0.227912 3.55585,0.490267 4.311455,0.582767 2.019162,0.247165 3.54513,1.477224 4.615519,3.720292 1.01221,2.121201 1.810585,5.914324 1.810585,8.602048 v 1.847583 l 2.86995,0.180348 c 1.57843,0.0993 3.84314,0.256113 5.03259,0.348511 2.00306,0.155575 2.15092,0.128064 2.00696,-0.373237 -0.0856,-0.297668 -0.37947,-1.597579 -0.65368,-2.888706 -0.27416,-1.291143 -0.80079,-3.27177 -1.16993,-4.401511 -0.36917,-1.129757 -0.76154,-2.740904 -0.87197,-3.580066 -0.11044,-0.839184 -0.35478,-1.650984 -0.54308,-1.804238 -0.18828,-0.15319 -4.11719,-1.513291 -8.731037,-3.022433 l -8.389138,-2.744017 2.35492,-0.08104 c 1.295129,-0.04462 4.937583,0.0327 8.094415,0.171824 6.20868,0.273617 6.82534,0.177636 7.73263,-1.202822 0.58827,-0.895038 0.99246,-2.50867 1.21058,-4.830275 l 0.17238,-1.833804 h -1.12848 c -1.90092,0 -5.6325,-0.368882 -5.62813,-0.556434 0.002,-0.09735 1.46928,-1.365638 3.25981,-2.818175 l 3.25531,-2.641078 -0.1821,-2.640684 c -0.20765,-3.010832 -0.86563,-4.690801 -2.31263,-5.904636 z m -59.520368,0.143066 c -2.850195,0.08389 -13.943414,0.747826 -14.061592,0.865641 -0.06073,0.06055 0.621735,1.429152 1.516686,3.041084 1.88556,3.396166 2.451662,4.823098 2.451662,6.179004 0,1.758776 -0.798877,2.255992 -8.213928,5.110331 -3.789124,1.458575 -6.952205,2.588753 -7.029382,2.511789 -0.07716,-0.07693 -0.354804,-3.962706 -0.616676,-8.635267 C 20.059189,40.711568 19.746448,36.790235 19.625939,36.6702 19.45602,36.500948 6.7218382,37.622054 6.5619296,37.820315 c -0.038151,0.04729 3.0488574,41.946199 3.100454,42.08184 0.077242,0.202926 12.4363214,-0.680105 12.5522094,-0.896849 0.01665,-0.03113 -0.202596,-3.952025 -0.487405,-8.713104 -0.69633,-11.640518 -0.701741,-13.12258 -0.04308,-13.317665 0.283311,-0.08389 4.621385,-1.404063 9.639971,-2.933265 5.018566,-1.529209 10.382945,-3.13334 11.920902,-3.565072 1.537937,-0.431709 3.1001,-0.976545 3.471596,-1.210515 1.883763,-2.142922 1.053005,-12.844584 -0.442285,-12.954158 z m 50.388107,3.240048 v 0 c 2.826473,-0.03002 3.044508,1.123017 3.277683,6.274246 0.110188,2.432691 0.112538,4.770975 0.0051,5.196254 -0.11133,0.442168 -0.571657,0.96752 -1.07522,1.227115 -0.671226,0.346036 -2.336147,0.497485 -7.003759,0.637087 l -6.122755,0.183176 -0.424382,-6.324106 -0.424404,-6.324084 3.090692,-0.184793 c 1.699843,-0.101584 4.521648,-0.331076 6.270818,-0.509811 0.962324,-0.09833 1.753479,-0.168152 2.405726,-0.175084 z m 19.229961,0.951566 c -0.47059,0.02328 -0.60051,0.259076 -0.91792,1.064606 -0.43817,1.112081 -0.43347,1.142064 0.18864,1.166755 0.35122,0.01391 3.88381,0.192616 7.85011,0.397143 3.96629,0.204504 8.49999,0.391352 10.07493,0.414985 l 2.86345,0.04298 -0.34389,-0.80688 c -0.18917,-0.443827 -0.4179,-0.894794 -0.50855,-1.002214 -0.0908,-0.107398 -4.07236,-0.406292 -8.84809,-0.66381 -4.77574,-0.257542 -9.16552,-0.51834 -9.75501,-0.579531 -0.25212,-0.02619 -0.44683,-0.0418 -0.60367,-0.03402 z m 0.0757,3.41675 c -3.31464,0.04845 -3.4851,0.747722 -6.13873,2.942192 -1.9813,1.638429 -3.5673,3.010686 -3.52444,3.049571 0.10939,0.0992 13.27874,1.009413 18.76898,1.297247 6.33062,0.331886 20.62224,0.233284 21.2637,-0.146718 0.42649,-0.252686 -0.33937,-0.801194 -4.56225,-3.267603 l -5.07487,-2.964084 -10.15502,-0.47738 c -5.46795,-0.257022 -8.58863,-0.462296 -10.57737,-0.433225 z m 146.08455,4.276706 0.0902,2.611489 c 0.0497,1.436434 0.17333,9.30597 0.2748,17.487806 l 0.18455,14.875876 0.92157,0.115909 c 0.50703,0.06368 5.60019,0.13669 11.31804,0.162507 l 10.39608,0.04705 2.20817,-0.916291 c 2.55281,-1.059458 4.67805,-2.422359 5.48136,-3.515225 0.54177,-0.737056 0.55404,-1.283763 0.34595,-15.625636 l -0.21586,-14.862099 -3.12077,0.0025 c -1.71643,0 -3.99564,0.0845 -5.06512,0.185209 l -1.94474,0.183176 -0.20041,5.757131 c -0.50749,14.572004 -1.11578,22.782621 -1.78294,24.068808 l -0.44515,0.858336 -4.58787,0.03443 -4.58827,0.03403 0.17439,-3.017161 c 0.29281,-5.061234 1.07613,-27.877741 0.961,-27.992547 -0.0594,-0.0592 -2.42489,-0.195437 -5.25659,-0.301924 z m -49.7442,-5.82278 c -1.50215,-0.0039 -1.8767,0.08877 -1.8789,0.303541 -0.002,0.225151 -0.26533,5.889594 -0.58458,12.58737 -0.31919,6.697765 -0.54547,15.170502 -0.54776,15.690358 l -0.004,0.945064 3.90007,0.09117 c 2.145,0.05012 4.10639,0.119956 4.35858,0.15523 0.38128,0.05325 0.809,-4.755605 2.72055,-15.869068 1.26443,-7.351135 2.24967,-13.414898 2.18948,-13.474905 -0.0601,-0.05999 -2.79108,-0.204797 -6.06878,-0.321781 -1.87604,-0.06698 -3.18332,-0.104493 -4.08462,-0.106983 z m -161.965317,7.71047 c -0.644339,0.02643 -0.485847,0.271547 -0.317487,0.767975 0.554071,1.633801 1.16517,6.460803 1.160591,9.169835 -0.004,2.491456 1.358338,18.631569 1.655719,19.613382 0.09262,0.305785 0.658012,0.354878 2.546384,0.220461 1.33509,-0.09505 6.202551,-0.320576 10.816401,-0.500909 4.613851,-0.180332 8.446912,-0.381534 8.518011,-0.447001 C 74.84367,78.796544 74.04117,60.503338 73.652733,54.520284 L 73.476298,51.805838 H 71.02545 68.574204 l 0.145922,0.806879 c 0.08029,0.443829 0.864376,5.550386 1.742302,11.347687 1.126957,7.44166 1.511691,10.697313 1.309387,11.074142 -0.631081,1.175571 -1.980845,1.521525 -6.459035,1.655087 -3.38056,0.100848 -4.345442,0.04368 -4.604131,-0.273554 -0.401239,-0.491969 -1.207379,-8.521978 -1.454496,-14.486438 -0.21215,-5.120395 0.174312,-8.677118 1.076444,-9.903735 0.400739,-0.544878 0.471046,-0.808249 0.216665,-0.81053 -0.207217,-0.002 -2.487918,-0.265924 -5.068371,-0.586812 -3.044174,-0.378531 -4.491511,-0.570669 -5.135848,-0.544277 z m 98.466837,1.503932 -1.19797,0.542637 c -0.65908,0.298418 -1.59567,0.55604 -2.08133,0.572641 -1.23489,0.04227 3.82125,2.489357 10.96479,5.306471 4.66529,1.839803 5.68144,2.354326 6.87204,3.479558 0.76846,0.726273 1.49582,1.713982 1.61628,2.195302 0.12045,0.481342 0.0509,1.999926 -0.15448,3.374613 -0.20536,1.374678 -0.46858,3.263245 -0.58495,4.196882 -0.26712,2.143048 -0.76606,2.658011 -2.58703,2.669838 -3.05237,0.01968 -7.76222,-0.472027 -8.14157,-0.850227 -0.27882,-0.277963 -0.44603,-1.984966 -0.59353,-6.060253 -0.11295,-3.120265 -0.28357,-6.173158 -0.37925,-6.784478 l -0.17401,-1.111617 -5.33259,0.197757 c -2.93279,0.108711 -5.35547,0.213718 -5.3838,0.233434 -0.0284,0.01968 0.13526,0.827461 0.36342,1.794483 0.47654,2.019822 0.53612,5.039244 0.13292,6.746372 -0.23451,0.992791 -0.0955,1.851605 0.90328,5.570722 0.72111,2.685356 1.40865,4.638817 1.76627,5.018329 0.50179,0.532465 1.05787,0.650257 3.88663,0.821461 3.25606,0.197076 19.66262,1.840823 20.52022,2.055889 0.24283,0.06094 0.49226,0.12601 0.55407,0.144682 0.0619,0.01867 0.53819,-0.228139 1.05856,-0.548739 l 0.94595,-0.583158 0.18374,-3.305304 c 0.10097,-1.817829 0.51849,-5.844088 0.92806,-8.947751 0.30073,-2.634329 1.26457,-5.698012 -0.24005,-7.833659 -5.90723,-3.980529 -16.73536,-6.369741 -23.84567,-8.895885 z m -32.69029,0.516701 -1.14352,0.789864 c -1.66377,1.149451 -3.29714,3.171329 -4.45452,5.513555 -4.33381,8.770531 0.63764,18.987647 10.4908,21.561063 3.90522,1.019973 7.16434,0.664641 11.0786,-1.208486 9.49304,-4.542773 11.80159,-16.426746 4.69642,-24.177014 l -1.39555,-1.522148 -5.08544,-0.202244 c -2.79704,-0.111216 -7.13346,-0.32676 -9.6363,-0.478604 z m 10.36234,1.001818 c 4.14145,-0.0097 7.88575,2.230782 9.64812,6.112939 0.9337,2.056759 1.12626,4.943755 0.47764,7.159329 -0.81955,2.799148 -3.36703,5.404388 -6.38465,6.529957 -5.32493,1.986187 -11.78643,-0.724029 -13.70548,-5.748624 -2.01212,-5.268293 0.62732,-11.360604 5.74927,-13.271059 1.41007,-0.525935 2.83462,-0.779304 4.2151,-0.782542 z m -85.946741,3.141574 c -6.352906,-0.0096 -18.778405,0.886083 -18.775471,1.400974 0,0.09471 0.961013,0.556307 2.134176,1.025721 2.978258,1.191656 10.473254,4.763157 11.62985,5.541941 0.609121,0.410151 1.066764,1.033815 1.25042,1.703702 0.369728,1.348626 0.868352,7.315241 0.874388,10.460986 l 0.0044,2.420617 0.809367,0.02596 c 0.445196,0.01412 2.729894,0.194048 5.077301,0.399587 2.347387,0.205546 5.029804,0.391853 5.960658,0.414181 l 1.69231,0.04055 v -0.995719 c 0,-1.860217 -0.868977,-9.115347 -1.456932,-12.162264 -0.322044,-1.668928 -0.747094,-4.418192 -0.944341,-6.109698 -0.471274,-4.041911 -0.37466,-3.985322 -7.072047,-4.151899 -0.363941,-0.0089 -0.760394,-0.01388 -1.183757,-0.01451 z m 98.537571,19.410354 c -0.17788,-0.0039 -0.99847,0.621915 -1.90489,1.458512 -2.05678,1.898393 -4.13372,3.138106 -6.79605,4.05707 -1.54239,0.532389 -2.56919,0.662405 -5.29802,0.670702 -2.95181,0.0089 -3.68651,-0.09363 -5.73994,-0.802413 -2.62279,-0.905319 -4.65357,-2.090998 -6.59684,-3.851596 l -1.2984,-1.176464 0.19432,0.988015 c 0.31924,1.624134 3.13928,4.431108 5.77,5.74377 1.35876,0.677963 3.67491,1.481169 5.02161,1.741384 0.40473,0.07819 1.86179,0.09574 3.23786,0.0389 4.05883,-0.167549 7.6501,-1.714452 10.5221,-4.532829 1.55904,-1.529916 3.23083,-4.010974 2.91509,-4.32574 -0.007,-0.0062 -0.015,-0.0091 -0.0268,-0.0093 z m -38.72413,3.380666 v 1.325195 1.325617 l 1.83987,0.174664 c 1.01181,0.09609 2.6344,0.213779 3.60574,0.261397 4.67734,0.229371 4.6127,0.233786 4.44885,-0.316114 -0.0842,-0.282399 -0.23815,-0.868789 -0.34188,-1.302914 -0.21288,-0.890865 -0.47384,-0.943323 -6.38829,-1.285065 z m 109.13001,-5.501811 c -0.0726,0.0032 -0.11622,0.01023 -0.12726,0.0211 -0.0892,0.089 0.57503,2.050243 1.47647,4.358567 0.90144,2.308324 1.78146,4.578487 1.9553,5.044679 0.17385,0.466214 0.36148,0.796648 0.41707,0.733926 0.42653,-0.481365 4.41848,-9.743964 4.3156,-9.84651 l -8.03718,-0.311741 z m -65.74768,6.571293 c -0.0981,0.03137 -0.0508,0.195586 0.0512,0.521973 0.79907,2.556767 1.10399,2.750572 4.69192,2.985558 3.41711,0.223819 20.16817,1.908126 20.60396,2.071692 0.58263,0.218681 0.89822,0.145623 1.83986,-0.426752 0.82519,-0.501568 0.95652,-0.744608 0.95652,-1.767318 v -1.185389 l -0.80936,0.41538 c -0.71459,0.366783 -1.68926,0.31813 -8.31557,-0.417004 -4.1282,-0.457981 -9.6912,-0.983679 -12.36236,-1.167956 -2.81208,-0.194026 -5.26826,-0.511739 -5.83465,-0.754615 -0.47954,-0.205647 -0.7234,-0.306938 -0.82155,-0.275569 z m -106.077518,0.07701 v 1.362483 c 2.2e-5,1.09224 0.10205,1.367064 0.515046,1.387219 0.283311,0.01388 3.296349,0.26063 6.696035,0.5483 3.399665,0.28771 6.496435,0.540395 6.881398,0.561702 0.661488,0.03662 0.688942,-0.02917 0.501227,-1.199584 -0.109251,-0.681054 -0.327019,-1.317368 -0.483764,-1.413937 -0.156746,-0.09661 -2.633882,-0.340308 -5.504953,-0.541439 -2.871069,-0.201138 -5.981826,-0.441683 -6.9127,-0.534936 z m 36.954184,0.26586 c -0.131873,-0.0062 -0.304186,0.0071 -0.529282,0.02918 -0.526139,0.05145 -5.506388,0.280054 -11.067224,0.508194 -5.560856,0.22814 -10.17658,0.481068 -10.257461,0.561679 -0.08091,0.08063 -0.05391,0.697225 0.06015,1.370208 l 0.207321,1.223456 3.133381,-0.178709 c 1.723277,-0.09831 6.576794,-0.323086 10.78593,-0.499271 6.712415,-0.281028 9.699187,-0.658726 8.461898,-1.069896 -0.20193,-0.06713 -0.367479,-0.546418 -0.367479,-1.065443 0,-0.666129 -0.03153,-0.860822 -0.427236,-0.879393 z m -52.621896,0.05466 -1.217494,0.162506 c -0.669522,0.0894 -3.449452,0.324976 -6.177722,0.523197 -5.3655846,0.389839 -5.3971796,0.402638 -5.0785273,2.096018 0,0 0.3676691,0.388044 0.6876253,0.44866 2.349637,0.860941 12.144932,-0.142153 11.919461,-1.955026 z m 175.20249,0.333546 v 1.323163 c 0,1.541844 0.0596,1.57108 3.53175,1.721549 1.21418,0.05263 2.86988,0.08597 3.67933,0.07419 l 8.80092,-0.263014 -0.41707,-0.733927 0.0889,-1.219418 -9.41394,-0.422289 c -1.42704,-0.06399 -3.41874,-0.246043 -4.43056,-0.329062 z m 96.25053,0.03482 -1.65978,1.158648 c -0.9127,0.637396 -2.73398,1.572406 -4.04721,2.077361 l -2.38743,0.91793 -11.40586,-0.107816 -11.40583,-0.108207 v 1.406267 1.405843 l 11.72821,-0.08307 11.72861,-0.08308 2.80736,-1.389642 c 3.13984,-1.554291 4.64193,-2.956425 4.64193,-4.333432 z m -206.188271,0.088 c -0.717038,-0.0024 -10.754629,1.273741 -10.868456,1.387195 -0.07261,0.07239 -0.05741,0.688731 0.03416,1.369377 0.144339,1.072798 0.250093,1.219064 0.791072,1.101078 0.343232,-0.07481 2.477907,-0.342401 4.744371,-0.594899 6.191832,-0.6899 5.820211,-0.556416 5.580566,-2.003205 -0.111058,-0.670553 -0.219892,-1.235581 -0.241871,-1.255499 -0.0032,-0.0032 -0.01665,-0.0039 -0.03984,-0.0039 z m 98.457901,1.157817 -1.54516,0.532113 c -1.15636,0.398261 -2.45267,0.534567 -5.15086,0.54183 l -3.60576,0.0093 v 1.305346 1.304945 l 1.54515,0.107793 c 5.44949,0.380209 8.75663,-0.764826 8.75663,-3.03175 z m 63.25332,1.702108 0.0891,1.377879 0.089,1.377878 4.26795,0.472935 c 2.34738,0.260159 5.63048,0.538677 5.89245,0.560957 0.34722,0.02948 -0.62635,-0.34331 -0.50457,-1.248276 0.0919,-0.682818 0.12362,-1.284218 0.0711,-1.33655 -0.0525,-0.05231 -1.86542,-0.282267 -4.02852,-0.511033 -2.16311,-0.228735 -4.37029,-0.478418 -4.90494,-0.554793 z m -13.58493,-0.307664 -8.95761,-0.0057 0.2773,2.989412 8.42001,0.06653 z"
         sodipodi:nodetypes="cssssssscssssccsssssscsscssssscccccccscccsccccccccsccsscsscsccssccccccscccccccscsscccscssssssssccssssssscsssscssccscccsccsssssssssssssccssscccsssssssscssssssssssccsscsssccccscccscssccccscccssscssssscsscssssccccssssssscssccssssscsssscsssssssssccsssccccscccsscssssssscsssscccsscsssssscssssscsssssscssssssssssssssssssssssccscsscsssssssccscssscssssscsscccssccscscccccssccsccccscccssssccccsccccssccccssscscccscsccccssccccccc" />
      <g
         id="g9720"
         transform="translate(2.537063)">
        <path
           id="path1062"
           style="opacity:0.242183;fill:#000000;stroke-width:6.77385;stroke-linecap:round;paint-order:stroke fill markers;filter:url(#filter1136)"
           d="m 51.165471,7.1936759 197.528769,-2.980683 0.01,1.4570586 -2.06872,1.8848768 2.09235,1.5815281 0.003,0.5074222 -3.88173,0.6730514 3.8882,0.274865 0.0311,4.559254 -1.58806,0.550683 1.59432,0.367563 0.0361,5.293481 -2.07281,1.193126 2.08804,1.04015 0.008,1.169296 -197.528773,2.980683 -0.0045,-0.662072 4.525077,-0.764391 -4.533007,-0.398598 -0.01189,-1.74333 1.338928,-0.978037 -1.354149,-1.254315 -0.04402,-6.45647 1.281687,-0.490408 -1.290031,-0.733304 -0.0046,-0.673504 3.779513,-2.079386 L 51.18268,9.76796 Z"
           sodipodi:nodetypes="ccccccccccccccccccccccccccccc"
           transform="matrix(0.78457121,0,0,1,29.777488,0)" />
        <path
           id="rect27836"
           style="fill:#ffffff;stroke-width:6.00001;stroke-linecap:round;paint-order:stroke fill markers"
           d="m 69.920442,4.5478425 154.975388,-2.9806831 0.008,1.4570586 -1.62306,1.8848768 1.64159,1.5815282 0.003,0.5074222 -3.04549,0.6730517 3.05056,0.2748642 0.0244,4.5592529 -1.24595,0.550684 1.25087,0.367563 0.0284,5.293481 -1.62627,1.193126 1.63821,1.04015 0.006,1.169296 -154.975386,2.980683 -0.0036,-0.662073 3.550246,-0.76439 -3.556468,-0.398599 -0.0093,-1.743329 1.050484,-0.978038 -1.062427,-1.254315 -0.03454,-6.456469 1.005575,-0.490408 -1.012121,-0.733305 -0.0036,-0.673503 2.965297,-2.079386 -2.985752,-1.7442555 z"
           sodipodi:nodetypes="ccccccccccccccccccccccccccccc" />
        <g
           aria-label="Black Box Investigation Team"
           transform="rotate(-0.94303321)"
           id="text5612"
           style="font-size:10.5833px;line-height:1.25;stroke-width:0.264583">
          <path
             d="m 91.40324,11.992105 c 0.412749,0.01058 0.634998,0.105833 0.666748,0.359832 0.0635,0.592665 0.08467,1.428745 0.08467,2.804574 0,1.587495 -0.02117,2.423576 -0.08467,3.016241 -0.03175,0.253999 -0.243416,0.349249 -0.645581,0.359832 v 0.253999 c 0.338665,-0.03175 0.497415,-0.03175 0.698497,-0.03175 0.28575,0 0.455082,0.02117 0.751415,0.07408 0.296332,0.05292 0.539748,0.07408 0.719664,0.07408 1.513412,0 2.688158,-0.740831 2.688158,-2.042576 0,-1.164163 -0.709081,-1.650995 -1.714494,-1.799161 1.05833,-0.201083 1.566328,-0.888998 1.566328,-1.693328 0,-1.195913 -0.910164,-1.746245 -2.317743,-1.746245 -0.306915,0 -0.571498,0.03175 -0.793747,0.0635 -0.455082,0.0635 -0.634998,0.08467 -0.825497,0.08467 -0.211666,0 -0.433916,0 -0.793748,-0.03175 z m 3.725322,1.534578 c 0,0.761998 -0.709082,1.428746 -1.619245,1.428746 -0.148166,0 -0.285749,-0.01058 -0.486832,-0.03175 0,-1.12183 0.01058,-1.883828 0.05292,-2.730492 0.169333,-0.05292 0.349249,-0.07408 0.518582,-0.07408 1.09008,0 1.534579,0.529165 1.534579,1.407579 z m -1.206497,4.889485 c -0.232832,0 -0.550331,-0.09525 -0.687914,-0.296333 -0.169333,-0.264582 -0.211666,-0.560915 -0.211666,-2.709324 0.179916,-0.02117 0.317499,-0.02117 0.444499,-0.02117 1.132413,0 1.809744,0.518582 1.809744,1.576912 0,0.93133 -0.603248,1.449912 -1.354663,1.449912 z"
             style="font-family:Seshat;-inkscape-font-specification:Seshat"
             id="path9738" />
          <path
             d="m 99.266624,18.532584 c -0.402165,-0.01058 -0.656164,-0.105833 -0.687914,-0.359832 -0.0635,-0.592665 -0.08467,-1.111247 -0.08467,-3.122074 0,-2.243659 0.02117,-3.037407 0.148166,-3.799404 l -0.03175,-0.05292 c -0.486832,0.127 -1.015997,0.169333 -1.725078,0.179916 v 0.264583 c 0.529165,0.02117 0.730248,0.137583 0.761998,0.402165 0.0635,0.497415 0.08467,1.079497 0.08467,3.005657 0,2.010827 -0.02117,2.529409 -0.08467,3.122074 -0.03175,0.253999 -0.28575,0.349249 -0.687915,0.359832 v 0.253999 c 0.349249,-0.03175 0.772581,-0.03175 1.15358,-0.03175 0.380999,0 0.804331,0 1.153579,0.03175 z"
             style="font-family:Seshat;-inkscape-font-specification:Seshat"
             id="path9740" />
          <path
             d="m 103.65869,18.257418 c -0.127,0.0635 -0.21166,0.07408 -0.33866,0.07408 -0.17992,0 -0.40217,-0.179916 -0.41275,-0.592665 -0.0106,-0.592664 0,-1.439328 0.0423,-2.08491 0.0529,-0.751414 -0.33866,-1.280579 -1.37583,-1.280579 -0.45508,0 -0.89958,0.127 -1.34408,0.497415 -0.0106,0.243416 -0.0529,0.603248 -0.0952,0.878414 l 0.3175,-0.02117 c 0.0529,-0.634998 0.51858,-0.825498 0.86783,-0.825498 0.62442,0 0.83608,0.349249 0.80433,0.888997 0,0.1905 -0.0106,0.359833 -0.0106,0.507999 -0.27517,0.09525 -0.6985,0.201082 -1.03716,0.253999 -0.6985,0.116416 -1.259416,0.507998 -1.259416,1.15358 0,0.645581 0.550336,1.195912 1.111246,1.195912 0.53975,0 0.98425,-0.338665 1.22766,-0.687914 0.11642,0.518582 0.34925,0.687914 0.68792,0.687914 0.20108,0 0.37041,-0.05292 0.5715,-0.169332 l 0.23283,-0.137583 0.0529,-0.296333 z m -2.37066,0.09525 c -0.3175,0 -0.56091,-0.264583 -0.56091,-0.592665 0,-0.613831 0.55033,-0.99483 1.37583,-1.015997 -0.0106,0.264583 -0.0106,0.476249 -0.0106,0.645582 0,0.507998 -0.35983,0.96308 -0.80433,0.96308 z"
             style="font-family:Seshat;-inkscape-font-specification:Seshat"
             id="path9742" />
          <path
             d="m 107.77558,15.56926 c 0.0529,-0.264582 0.127,-0.571498 0.22225,-0.814914 -0.33867,-0.232833 -0.80433,-0.380999 -1.35466,-0.380999 -1.3335,0 -2.34949,0.99483 -2.34949,2.444742 0,1.238246 0.75141,2.08491 2.04257,2.08491 0.49742,0 0.762,-0.07408 1.0795,-0.243415 l 0.35983,-0.1905 0.11642,-0.455082 -0.0423,-0.04233 c -0.31749,0.222249 -0.71966,0.370416 -1.07949,0.370416 -1.03717,0 -1.60866,-0.709082 -1.60866,-1.841495 0,-0.99483 0.56091,-1.640411 1.24883,-1.640411 0.44449,0 0.74083,0.127 0.91016,0.285749 0.10583,0.09525 0.14817,0.201083 0.13758,0.380999 z"
             style="font-family:Seshat;-inkscape-font-specification:Seshat"
             id="path9744" />
          <path
             d="m 109.93457,11.198357 c -0.48684,0.127 -1.016,0.169333 -1.72508,0.179916 v 0.264583 c 0.52916,0.02117 0.73025,0.137583 0.762,0.402165 0.0635,0.497415 0.0847,1.079497 0.0847,3.005657 0,2.010827 -0.0212,2.529409 -0.0847,3.122074 -0.0318,0.253999 -0.28575,0.349249 -0.68792,0.359832 v 0.253999 c 0.34925,-0.03175 0.77258,-0.03175 1.15358,-0.03175 0.381,0 0.80433,0 1.16416,0.03175 v -0.253999 c -0.41274,-0.01058 -0.66674,-0.105833 -0.69849,-0.359832 -0.0635,-0.592665 -0.0847,-1.111247 -0.0847,-3.122074 0,-2.243659 0.0212,-3.037407 0.14817,-3.799404 z m 3.20674,7.323644 c -0.53975,-0.03175 -0.74083,-0.148167 -1.24883,-0.825498 l -0.60325,-0.814914 c -0.14817,-0.211666 -0.29633,-0.359832 -0.508,-0.497415 0.381,-0.582081 0.635,-0.888997 1.15358,-1.301746 0.35983,-0.285749 0.58208,-0.328082 0.9525,-0.349249 V 14.47918 c -0.46567,0.04233 -1.397,0.04233 -1.9685,0.04233 v 0.254 c 0.3175,0.02117 0.43392,0.0635 0.43392,0.179916 0,0.190499 -0.29633,0.571498 -1.31233,1.545161 l 0.0317,0.211666 c 0.254,0.179916 0.42333,0.370416 0.58208,0.624415 l 0.89958,1.418162 c 0.46567,0 1.19591,0.01058 1.5875,0.03175 z"
             style="font-family:Seshat;-inkscape-font-specification:Seshat"
             id="path9746" />
          <path
             d="m 115.43785,11.992105 c 0.41275,0.01058 0.635,0.105833 0.66675,0.359832 0.0635,0.592665 0.0847,1.428745 0.0847,2.804574 0,1.587495 -0.0212,2.423576 -0.0847,3.016241 -0.0318,0.253999 -0.24342,0.349249 -0.64558,0.359832 v 0.253999 c 0.33866,-0.03175 0.49741,-0.03175 0.6985,-0.03175 0.28575,0 0.45508,0.02117 0.75141,0.07408 0.29633,0.05292 0.53975,0.07408 0.71967,0.07408 1.51341,0 2.68815,-0.740831 2.68815,-2.042576 0,-1.164163 -0.70908,-1.650995 -1.71449,-1.799161 1.05833,-0.201083 1.56633,-0.888998 1.56633,-1.693328 0,-1.195913 -0.91017,-1.746245 -2.31774,-1.746245 -0.30692,0 -0.5715,0.03175 -0.79375,0.0635 -0.45508,0.0635 -0.635,0.08467 -0.8255,0.08467 -0.21167,0 -0.43392,0 -0.79375,-0.03175 z m 3.72532,1.534578 c 0,0.761998 -0.70908,1.428746 -1.61924,1.428746 -0.14817,0 -0.28575,-0.01058 -0.48683,-0.03175 0,-1.12183 0.0106,-1.883828 0.0529,-2.730492 0.16934,-0.05292 0.34925,-0.07408 0.51859,-0.07408 1.09008,0 1.53457,0.529165 1.53457,1.407579 z m -1.20649,4.889485 c -0.23283,0 -0.55033,-0.09525 -0.68792,-0.296333 -0.16933,-0.264582 -0.21166,-0.560915 -0.21166,-2.709324 0.17991,-0.02117 0.3175,-0.02117 0.4445,-0.02117 1.13241,0 1.80974,0.518582 1.80974,1.576912 0,0.93133 -0.60325,1.449912 -1.35466,1.449912 z"
             style="font-family:Seshat;-inkscape-font-specification:Seshat"
             id="path9748" />
          <path
             d="m 123.42824,14.373347 c -1.19592,0 -2.12725,0.899581 -2.12725,2.285993 0,1.439329 0.762,2.243659 2.00025,2.243659 1.19591,0 2.12724,-0.89958 2.12724,-2.285992 0,-1.439329 -0.762,-2.24366 -2.00024,-2.24366 z m -0.0741,4.085154 c -0.70908,0 -1.14299,-0.804331 -1.14299,-1.894411 0,-1.195913 0.49741,-1.746244 1.16416,-1.746244 0.70908,0 1.143,0.804331 1.143,1.89441 0,1.195913 -0.49742,1.746245 -1.16417,1.746245 z"
             style="font-family:Seshat;-inkscape-font-specification:Seshat"
             id="path9750" />
          <path
             d="m 130.11685,18.543167 c -0.40216,-0.05292 -0.57149,-0.169333 -0.97366,-0.677331 -0.34925,-0.444499 -0.62441,-0.867831 -0.92075,-1.396996 0.41275,-0.624414 0.62442,-0.86783 0.94192,-1.248829 0.30691,-0.359832 0.48683,-0.465665 0.85724,-0.486832 V 14.47918 c -0.46566,0.04233 -1.13241,0.04233 -1.70391,0.04233 v 0.211666 c 0.3175,0.02117 0.40217,0.105833 0.40217,0.243416 0,0.105833 -0.127,0.359832 -0.6985,1.100663 -0.35983,-0.645581 -0.55033,-1.015996 -0.78316,-1.576911 -0.48684,0.04233 -0.96308,0.05292 -1.56633,0.05292 v 0.253999 c 0.4445,0.02117 0.635,0.09525 0.86783,0.402166 0.32808,0.433915 0.51858,0.709081 0.91016,1.523995 -0.33866,0.507998 -0.59266,0.846664 -0.98424,1.312329 -0.26459,0.317499 -0.48684,0.433915 -0.85725,0.497415 v 0.253999 c 0.56091,-0.04233 1.24883,-0.04233 1.84149,-0.04233 v -0.211666 c -0.24341,-0.01058 -0.40216,-0.08467 -0.40216,-0.201082 0,-0.232833 0.0635,-0.433916 0.64558,-1.227663 0.381,0.666748 0.61383,1.100663 0.91016,1.756828 0.61383,-0.04233 1.13242,-0.08467 1.51341,-0.07408 z"
             style="font-family:Seshat;-inkscape-font-specification:Seshat"
             id="path9752" />
          <path
             d="m 134.81581,11.738106 c -0.34925,0.03175 -0.75141,0.03175 -1.17475,0.03175 -0.42333,0 -0.82549,0 -1.18533,-0.03175 v 0.253999 c 0.41275,0.01058 0.635,0.105833 0.66675,0.359832 0.0635,0.592665 0.0847,1.428745 0.0847,2.804574 0,1.587495 -0.0212,2.423576 -0.0847,3.016241 -0.0317,0.253999 -0.254,0.349249 -0.65616,0.359832 v 0.253999 c 0.34925,-0.03175 0.75141,-0.03175 1.17474,-0.03175 0.42334,0 0.8255,0 1.18533,0.03175 v -0.253999 c -0.41275,-0.01058 -0.63499,-0.105833 -0.66674,-0.359832 -0.0635,-0.592665 -0.0847,-1.428746 -0.0847,-3.016241 0,-1.375829 0.0212,-2.211909 0.0847,-2.804574 0.0317,-0.253999 0.25399,-0.349249 0.65616,-0.359832 z"
             style="font-family:Seshat;-inkscape-font-specification:Seshat"
             id="path9754" />
          <path
             d="m 140.22388,18.532584 c -0.40217,-0.01058 -0.66675,-0.105833 -0.67734,-0.359832 -0.0317,-0.592665 -0.0317,-1.471079 -0.0106,-2.391826 0.0212,-0.867831 -0.51858,-1.407579 -1.43933,-1.407579 -0.66675,0 -1.19591,0.444499 -1.37583,1.079497 -0.0212,-0.391582 -0.0529,-0.761998 -0.0847,-1.02658 l -0.0318,-0.05292 c -0.48683,0.127 -0.85725,0.169333 -1.4605,0.179916 v 0.264583 c 0.52917,0.02117 0.74083,0.07408 0.78317,0.391582 0.0529,0.433915 0.0635,0.952497 0.0635,1.428745 0,0.634998 -0.0212,0.941914 -0.0847,1.534579 -0.0317,0.253999 -0.28575,0.349249 -0.68791,0.359832 v 0.253999 c 0.34924,-0.03175 0.77258,-0.03175 1.15357,-0.03175 0.381,0 0.80434,0 1.16417,0.03175 v -0.253999 c -0.41275,-0.01058 -0.66675,-0.105833 -0.6985,-0.359832 -0.0529,-0.465665 -0.0847,-1.015997 -0.0847,-1.428746 0,-1.185329 0.56092,-1.725078 1.05833,-1.725078 0.60325,0 0.96308,0.338666 0.9525,1.227663 -0.0106,1.18533 -0.0318,1.989661 -0.10583,2.487076 l 0.0212,0.04233 c 0.15875,-0.02117 0.32809,-0.02117 0.508,-0.02117 0.381,0 0.68792,0 1.03717,0.03175 z"
             style="font-family:Seshat;-inkscape-font-specification:Seshat"
             id="path9756" />
          <path
             d="m 141.75844,14.532097 c 0.20108,0.613831 0.65616,1.841494 1.13241,2.942157 0.762,-1.598078 0.97366,-2.21191 0.97366,-2.476492 0,-0.137583 -0.13758,-0.201083 -0.4445,-0.222249 v -0.254 c 0.56092,0 1.22767,0 1.70392,-0.04233 v 0.253999 c -0.39159,0.02117 -0.5715,0.179916 -0.74084,0.518582 -0.67733,1.375829 -1.15358,2.550575 -1.51341,3.630072 h -0.28575 c -0.65616,-1.799161 -1.03716,-2.730491 -1.47108,-3.460739 -0.21166,-0.359832 -0.45508,-0.571498 -0.86783,-0.613832 v -0.253999 c 0.53975,0 1.04775,-0.02117 1.47108,-0.05292 z"
             style="font-family:Seshat;-inkscape-font-specification:Seshat"
             id="path9758" />
          <path
             d="m 148.78574,18.469084 0.11642,-0.455082 -0.0423,-0.04233 c -0.3175,0.222249 -0.71967,0.370416 -1.0795,0.370416 -1.05833,0 -1.55574,-0.645582 -1.60866,-1.682745 0.29633,-0.01058 0.5715,-0.02117 0.9525,-0.02117 0.51858,0 0.86783,0 1.29116,0.01058 0.381,0.01058 0.64558,-0.137583 0.64558,-0.285749 0,-1.227663 -0.67733,-1.989661 -1.60866,-1.989661 -1.32291,0 -2.14841,1.005414 -2.14841,2.497659 0,1.238246 0.73025,2.031993 2.04258,2.031993 0.49741,0 0.76199,-0.07408 1.07949,-0.243415 z m -2.60349,-2.18016 c 0.0529,-0.825497 0.42333,-1.460495 1.00542,-1.460495 0.61383,0 1.00541,0.624415 1.00541,1.344079 -0.28575,0.09525 -0.65616,0.137583 -1.10066,0.137583 -0.30692,0 -0.61383,-0.01058 -0.91017,-0.02117 z"
             style="font-family:Seshat;-inkscape-font-specification:Seshat"
             id="path9760" />
          <path
             d="m 152.51105,15.50576 c 0.0212,-0.243416 0.0741,-0.497415 0.14816,-0.730247 -0.21166,-0.232833 -0.62441,-0.402166 -1.06891,-0.402166 -0.98425,0 -1.59808,0.624415 -1.59808,1.322913 0,0.645581 0.381,1.05833 1.143,1.291162 0.52916,0.15875 0.71966,0.402166 0.71966,0.772581 0,0.486832 -0.37041,0.761998 -0.80433,0.761998 -0.24341,0 -0.45508,-0.05292 -0.66675,-0.1905 -0.11641,-0.07408 -0.22224,-0.264582 -0.22224,-0.550331 l -0.30692,0.02117 c -0.0212,0.243416 -0.0741,0.518582 -0.14817,0.761998 0.34925,0.222249 0.762,0.338665 1.15358,0.338665 0.93133,0 1.76741,-0.582081 1.76741,-1.523995 0,-0.518581 -0.26458,-0.857247 -1.13241,-1.142996 -0.53975,-0.179916 -0.77258,-0.391582 -0.77258,-0.836081 0,-0.338665 0.254,-0.634998 0.65616,-0.634998 0.30692,0 0.508,0.08467 0.68792,0.264583 0.10583,0.105833 0.13758,0.285749 0.13758,0.476248 z"
             style="font-family:Seshat;-inkscape-font-specification:Seshat"
             id="path9762" />
          <path
             d="m 153.27303,14.976595 h 0.6985 c 0.0106,0.878414 0,1.968494 -0.0423,2.973907 -0.0212,0.560915 0.3175,0.952497 0.99483,0.952497 0.42333,0 0.78317,-0.116416 1.11125,-0.412748 l 0.0952,-0.402166 -0.0423,-0.02117 c -0.28575,0.201082 -0.52917,0.275166 -0.80434,0.275166 -0.22224,0 -0.47624,-0.116417 -0.48683,-0.465666 -0.0318,-0.920747 -0.0318,-2.08491 0,-2.910407 h 1.27 c 0.0106,-0.148166 0.0317,-0.296332 0.0529,-0.402165 h -1.32292 c 0.0106,-0.359833 0.0423,-0.793748 0.0952,-1.111247 l -0.37041,0.04233 c -0.17992,0.476249 -0.43392,0.867831 -0.6985,1.02658 -0.16933,0.09525 -0.3175,0.148167 -0.508,0.1905 z"
             style="font-family:Seshat;-inkscape-font-specification:Seshat"
             id="path9764" />
          <path
             d="m 157.72859,13.653683 c 0.33866,0 0.56091,-0.222249 0.56091,-0.560915 0,-0.338666 -0.22225,-0.560915 -0.56091,-0.560915 -0.33867,0 -0.56092,0.222249 -0.56092,0.560915 0,0.338666 0.22225,0.560915 0.56092,0.560915 z m 1.143,4.878901 c -0.40217,-0.01058 -0.65617,-0.105833 -0.68792,-0.359832 -0.0635,-0.592665 -0.0847,-0.899581 -0.0847,-1.534579 0,-0.709081 0.0106,-1.449912 0.0953,-2.211909 l -0.0318,-0.05292 c -0.48683,0.127 -1.06891,0.169333 -1.62982,0.179916 v 0.264583 c 0.57149,0.02117 0.75141,0.137583 0.77258,0.402165 0.0317,0.391582 0.0317,0.920747 0.0317,1.418162 0,0.634998 -0.0212,0.941914 -0.0847,1.534579 -0.0318,0.253999 -0.28575,0.349249 -0.68791,0.359832 v 0.253999 c 0.34925,-0.03175 0.77258,-0.03175 1.15358,-0.03175 0.38099,0 0.80433,0 1.15358,0.03175 z"
             style="font-family:Seshat;-inkscape-font-specification:Seshat"
             id="path9766" />
          <path
             d="m 162.38524,14.563847 c -0.127,0 -0.26459,-0.01058 -0.4445,-0.07408 -0.20109,-0.07408 -0.41275,-0.116416 -0.71967,-0.116416 -0.92074,0 -1.75683,0.497415 -1.75683,1.587495 0,0.687915 0.40217,1.142996 1.03717,1.312329 -0.17992,0.148166 -0.30692,0.232833 -0.45508,0.338666 -0.10584,0.08467 -0.16934,0.169333 -0.16934,0.264582 0,0.179916 0.0847,0.306916 0.24342,0.412749 -0.32808,0.391582 -0.71967,0.804331 -1.02658,1.05833 l -0.0212,0.04233 c 0,0.814914 0.79375,1.386412 1.67216,1.386412 1.09008,0 2.413,-0.603248 2.413,-1.735661 0,-0.941913 -0.68792,-1.195913 -1.73566,-1.248829 -0.45509,-0.02117 -0.64559,-0.105833 -0.64559,-0.264583 0,-0.0635 0.0318,-0.126999 0.10584,-0.190499 0.0741,0.01058 0.14816,0.01058 0.22225,0.01058 0.99483,0 1.75682,-0.571498 1.75682,-1.492245 0,-0.338665 -0.0847,-0.645581 -0.24341,-0.86783 h 0.77258 c 0,-0.15875 0.0106,-0.275166 0.0318,-0.423332 z m -1.19592,2.381242 c -0.59266,0 -0.89958,-0.444499 -0.89958,-1.05833 0,-0.761998 0.35983,-1.100663 0.8255,-1.100663 0.75141,0 0.9525,0.666748 0.9525,1.174746 0,0.613831 -0.34925,0.984247 -0.87842,0.984247 z m 1.143,2.391826 c 0,0.730247 -0.635,1.037163 -1.29116,1.037163 -0.67733,0 -1.143,-0.486832 -1.143,-1.037163 0,-0.349249 0.24342,-0.645582 0.62441,-0.899581 0.21167,0.0635 0.49742,0.09525 0.8255,0.116417 0.6985,0.04233 0.98425,0.328082 0.98425,0.783164 z"
             style="font-family:Seshat;-inkscape-font-specification:Seshat"
             id="path9768" />
          <path
             d="m 167.75097,18.257418 c -0.127,0.0635 -0.21167,0.07408 -0.33867,0.07408 -0.17991,0 -0.40216,-0.179916 -0.41274,-0.592665 -0.0106,-0.592664 0,-1.439328 0.0423,-2.08491 0.0529,-0.751414 -0.33867,-1.280579 -1.37583,-1.280579 -0.45508,0 -0.89958,0.127 -1.34408,0.497415 -0.0106,0.243416 -0.0529,0.603248 -0.0952,0.878414 l 0.3175,-0.02117 c 0.0529,-0.634998 0.51858,-0.825498 0.86783,-0.825498 0.62441,0 0.83608,0.349249 0.80433,0.888997 0,0.1905 -0.0106,0.359833 -0.0106,0.507999 -0.27517,0.09525 -0.6985,0.201082 -1.03717,0.253999 -0.69849,0.116416 -1.25941,0.507998 -1.25941,1.15358 0,0.645581 0.55033,1.195912 1.11125,1.195912 0.53975,0 0.98424,-0.338665 1.22766,-0.687914 0.11642,0.518582 0.34925,0.687914 0.68792,0.687914 0.20108,0 0.37041,-0.05292 0.57149,-0.169332 l 0.23284,-0.137583 0.0529,-0.296333 z m -2.37066,0.09525 c -0.3175,0 -0.56091,-0.264583 -0.56091,-0.592665 0,-0.613831 0.55033,-0.99483 1.37582,-1.015997 -0.0106,0.264583 -0.0106,0.476249 -0.0106,0.645582 0,0.507998 -0.35983,0.96308 -0.80433,0.96308 z"
             style="font-family:Seshat;-inkscape-font-specification:Seshat"
             id="path9770" />
          <path
             d="m 168.14253,14.976595 h 0.6985 c 0.0106,0.878414 0,1.968494 -0.0423,2.973907 -0.0212,0.560915 0.31749,0.952497 0.99483,0.952497 0.42333,0 0.78316,-0.116416 1.11124,-0.412748 l 0.0952,-0.402166 -0.0423,-0.02117 c -0.28575,0.201082 -0.52917,0.275166 -0.80433,0.275166 -0.22225,0 -0.47625,-0.116417 -0.48683,-0.465666 -0.0317,-0.920747 -0.0317,-2.08491 0,-2.910407 h 1.26999 c 0.0106,-0.148166 0.0317,-0.296332 0.0529,-0.402165 h -1.32291 c 0.0106,-0.359833 0.0423,-0.793748 0.0952,-1.111247 l -0.37042,0.04233 c -0.17992,0.476249 -0.43391,0.867831 -0.6985,1.02658 -0.16933,0.09525 -0.3175,0.148167 -0.508,0.1905 z"
             style="font-family:Seshat;-inkscape-font-specification:Seshat"
             id="path9772" />
          <path
             d="m 172.5981,13.653683 c 0.33866,0 0.56091,-0.222249 0.56091,-0.560915 0,-0.338666 -0.22225,-0.560915 -0.56091,-0.560915 -0.33867,0 -0.56092,0.222249 -0.56092,0.560915 0,0.338666 0.22225,0.560915 0.56092,0.560915 z m 1.14299,4.878901 c -0.40216,-0.01058 -0.65616,-0.105833 -0.68791,-0.359832 -0.0635,-0.592665 -0.0847,-0.899581 -0.0847,-1.534579 0,-0.709081 0.0106,-1.449912 0.0952,-2.211909 l -0.0317,-0.05292 c -0.48683,0.127 -1.06891,0.169333 -1.62983,0.179916 v 0.264583 c 0.5715,0.02117 0.75142,0.137583 0.77258,0.402165 0.0318,0.391582 0.0318,0.920747 0.0318,1.418162 0,0.634998 -0.0212,0.941914 -0.0847,1.534579 -0.0317,0.253999 -0.28575,0.349249 -0.68792,0.359832 v 0.253999 c 0.34925,-0.03175 0.77258,-0.03175 1.15358,-0.03175 0.381,0 0.80433,0 1.15358,0.03175 z"
             style="font-family:Seshat;-inkscape-font-specification:Seshat"
             id="path9774" />
          <path
             d="m 176.40808,14.373347 c -1.19591,0 -2.12724,0.899581 -2.12724,2.285993 0,1.439329 0.76199,2.243659 2.00024,2.243659 1.19591,0 2.12724,-0.89958 2.12724,-2.285992 0,-1.439329 -0.762,-2.24366 -2.00024,-2.24366 z m -0.0741,4.085154 c -0.70909,0 -1.143,-0.804331 -1.143,-1.894411 0,-1.195913 0.49741,-1.746244 1.16416,-1.746244 0.70908,0 1.143,0.804331 1.143,1.89441 0,1.195913 -0.49742,1.746245 -1.16416,1.746245 z"
             style="font-family:Seshat;-inkscape-font-specification:Seshat"
             id="path9776" />
          <path
             d="m 183.96455,18.532584 c -0.40217,-0.01058 -0.66675,-0.105833 -0.67733,-0.359832 -0.0317,-0.592665 -0.0317,-1.471079 -0.0106,-2.391826 0.0212,-0.867831 -0.51858,-1.407579 -1.43932,-1.407579 -0.66675,0 -1.19592,0.444499 -1.37583,1.079497 -0.0212,-0.391582 -0.0529,-0.761998 -0.0847,-1.02658 l -0.0318,-0.05292 c -0.48683,0.127 -0.85725,0.169333 -1.46049,0.179916 v 0.264583 c 0.52916,0.02117 0.74083,0.07408 0.78316,0.391582 0.0529,0.433915 0.0635,0.952497 0.0635,1.428745 0,0.634998 -0.0212,0.941914 -0.0847,1.534579 -0.0317,0.253999 -0.28575,0.349249 -0.68791,0.359832 v 0.253999 c 0.34925,-0.03175 0.77258,-0.03175 1.15358,-0.03175 0.381,0 0.80433,0 1.16416,0.03175 v -0.253999 c -0.41275,-0.01058 -0.66675,-0.105833 -0.6985,-0.359832 -0.0529,-0.465665 -0.0847,-1.015997 -0.0847,-1.428746 0,-1.185329 0.56091,-1.725078 1.05833,-1.725078 0.60324,0 0.96308,0.338666 0.95249,1.227663 -0.0106,1.18533 -0.0318,1.989661 -0.10583,2.487076 l 0.0212,0.04233 c 0.15875,-0.02117 0.32808,-0.02117 0.508,-0.02117 0.38099,0 0.68791,0 1.03716,0.03175 z"
             style="font-family:Seshat;-inkscape-font-specification:Seshat"
             id="path9778" />
          <path
             d="m 186.62092,13.103351 c 0.21167,-0.751414 0.45508,-0.920747 1.49225,-0.920747 h 0.86783 c 0.0423,0.910164 0.0529,1.714495 0.0529,2.973907 0,1.587495 -0.0212,2.423576 -0.0847,3.016241 -0.0318,0.253999 -0.254,0.349249 -0.65617,0.359832 v 0.253999 c 0.34925,-0.03175 0.75142,-0.03175 1.17475,-0.03175 0.42333,0 0.82549,0 1.18533,0.03175 v -0.253999 c -0.41275,-0.01058 -0.635,-0.105833 -0.66675,-0.359832 -0.0635,-0.592665 -0.0847,-1.428746 -0.0847,-3.016241 0,-1.259412 0.0106,-2.063743 0.0529,-2.973907 h 0.62441 c 0.61384,0 0.91017,0.02117 1.23825,0.07408 0.254,0.04233 0.381,0.232833 0.28575,0.793748 l 0.37041,-0.02117 c 0.0423,-0.380999 0.11642,-0.86783 0.23284,-1.344079 -1.18533,0.07408 -1.94733,0.105833 -3.23849,0.105833 -1.21708,0 -1.89441,-0.01058 -2.96333,-0.0635 -0.0635,0.455082 -0.15875,0.984247 -0.254,1.396996 z"
             style="font-family:Seshat;-inkscape-font-specification:Seshat"
             id="path9780" />
          <path
             d="m 195.01346,18.469084 0.11641,-0.455082 -0.0423,-0.04233 c -0.3175,0.222249 -0.71967,0.370416 -1.0795,0.370416 -1.05833,0 -1.55574,-0.645582 -1.60866,-1.682745 0.29633,-0.01058 0.5715,-0.02117 0.9525,-0.02117 0.51858,0 0.86783,0 1.29116,0.01058 0.381,0.01058 0.64558,-0.137583 0.64558,-0.285749 0,-1.227663 -0.67733,-1.989661 -1.60866,-1.989661 -1.32291,0 -2.14841,1.005414 -2.14841,2.497659 0,1.238246 0.73025,2.031993 2.04258,2.031993 0.49741,0 0.76199,-0.07408 1.07949,-0.243415 z m -2.6035,-2.18016 c 0.0529,-0.825497 0.42334,-1.460495 1.00542,-1.460495 0.61383,0 1.00541,0.624415 1.00541,1.344079 -0.28575,0.09525 -0.65616,0.137583 -1.10066,0.137583 -0.30692,0 -0.61383,-0.01058 -0.91017,-0.02117 z"
             style="font-family:Seshat;-inkscape-font-specification:Seshat"
             id="path9782" />
          <path
             d="m 199.92409,18.257418 c -0.127,0.0635 -0.21167,0.07408 -0.33867,0.07408 -0.17991,0 -0.40216,-0.179916 -0.41275,-0.592665 -0.0106,-0.592664 0,-1.439328 0.0423,-2.08491 0.0529,-0.751414 -0.33867,-1.280579 -1.37583,-1.280579 -0.45508,0 -0.89958,0.127 -1.34408,0.497415 -0.0106,0.243416 -0.0529,0.603248 -0.0953,0.878414 l 0.3175,-0.02117 c 0.0529,-0.634998 0.51858,-0.825498 0.86783,-0.825498 0.62441,0 0.83608,0.349249 0.80433,0.888997 0,0.1905 -0.0106,0.359833 -0.0106,0.507999 -0.27517,0.09525 -0.6985,0.201082 -1.03717,0.253999 -0.69849,0.116416 -1.25941,0.507998 -1.25941,1.15358 0,0.645581 0.55033,1.195912 1.11125,1.195912 0.53974,0 0.98424,-0.338665 1.22766,-0.687914 0.11642,0.518582 0.34925,0.687914 0.68791,0.687914 0.20109,0 0.37042,-0.05292 0.5715,-0.169332 l 0.23283,-0.137583 0.0529,-0.296333 z m -2.37066,0.09525 c -0.3175,0 -0.56092,-0.264583 -0.56092,-0.592665 0,-0.613831 0.55034,-0.99483 1.37583,-1.015997 -0.0106,0.264583 -0.0106,0.476249 -0.0106,0.645582 0,0.507998 -0.35983,0.96308 -0.80433,0.96308 z"
             style="font-family:Seshat;-inkscape-font-specification:Seshat"
             id="path9784" />
          <path
             d="m 208.13671,18.532584 c -0.40216,-0.01058 -0.66675,-0.105833 -0.67733,-0.359832 -0.0318,-0.592665 -0.0318,-1.471079 -0.0106,-2.391826 0.0212,-0.867831 -0.51858,-1.407579 -1.43933,-1.407579 -0.67733,0 -1.16416,0.433915 -1.38641,1.111247 -0.10584,-0.740831 -0.51859,-1.111247 -1.38642,-1.111247 -0.67733,0 -1.17474,0.455082 -1.37583,1.142997 -0.0212,-0.412749 -0.0529,-0.814915 -0.0847,-1.09008 l -0.0317,-0.05292 c -0.48683,0.127 -0.85725,0.169333 -1.4605,0.179916 v 0.264583 c 0.52917,0.02117 0.74083,0.07408 0.78317,0.391582 0.0529,0.433915 0.0635,0.952497 0.0635,1.428745 0,0.634998 -0.0212,0.941914 -0.0847,1.534579 -0.0317,0.253999 -0.28575,0.349249 -0.68791,0.359832 v 0.253999 c 0.34925,-0.03175 0.77258,-0.03175 1.15358,-0.03175 0.38099,0 0.80433,0 1.16416,0.03175 v -0.253999 c -0.41275,-0.01058 -0.66675,-0.105833 -0.6985,-0.359832 -0.0529,-0.465665 -0.0847,-1.015997 -0.0847,-1.428746 0,-1.185329 0.56092,-1.725078 1.05833,-1.725078 0.60325,0 0.96308,0.338666 0.9525,1.227663 -0.0106,1.18533 -0.0317,1.989661 -0.10583,2.487076 l 0.0212,0.04233 c 0.15874,-0.02117 0.32808,-0.02117 0.50799,-0.02117 0.381,0 0.68792,0 1.04775,0.03175 v -0.253999 c -0.41275,-0.01058 -0.67733,-0.105833 -0.68791,-0.359832 -0.0212,-0.380999 -0.0317,-0.878414 -0.0212,-1.428746 0,-1.185329 0.56091,-1.725078 1.05833,-1.725078 0.60325,0 0.96308,0.338666 0.9525,1.227663 -0.0106,1.18533 -0.0317,1.989661 -0.10584,2.487076 l 0.0212,0.04233 c 0.15875,-0.02117 0.32808,-0.02117 0.508,-0.02117 0.381,0 0.68791,0 1.03716,0.03175 z"
             style="font-family:Seshat;-inkscape-font-specification:Seshat"
             id="path9786" />
        </g>
      </g>
    </g>
  </g>
</svg>
