<?xml version="1.0" encoding="UTF-8" standalone="no"?>
<!-- Created with Inkscape (http://www.inkscape.org/) -->

<svg
   width="300mm"
   height="300mm"
   viewBox="0 0 300 300"
   version="1.1"
   id="svg43273"
   inkscape:version="1.1.1 (3bf5ae0d25, 2021-09-20)"
   sodipodi:docname="veryhappy.svg"
   xmlns:inkscape="http://www.inkscape.org/namespaces/inkscape"
   xmlns:sodipodi="http://sodipodi.sourceforge.net/DTD/sodipodi-0.dtd"
   xmlns="http://www.w3.org/2000/svg"
   xmlns:svg="http://www.w3.org/2000/svg">
  <sodipodi:namedview
     id="namedview43275"
     pagecolor="#ffffff"
     bordercolor="#666666"
     borderopacity="1.0"
     inkscape:pageshadow="2"
     inkscape:pageopacity="0.0"
     inkscape:pagecheckerboard="0"
     inkscape:document-units="mm"
     showgrid="false"
     inkscape:zoom="2.8284271"
     inkscape:cx="458.55875"
     inkscape:cy="826.43105"
     inkscape:window-width="1920"
     inkscape:window-height="1017"
     inkscape:window-x="1912"
     inkscape:window-y="-8"
     inkscape:window-maximized="1"
     inkscape:current-layer="layer1" />
  <defs
     id="defs43270">
    <filter
       inkscape:collect="always"
       style="color-interpolation-filters:sRGB"
       id="filter3590"
       x="-0.14865123"
       y="-0.14127688"
       width="1.2973025"
       height="1.2825538">
      <feGaussianBlur
         inkscape:collect="always"
         stdDeviation="16.871982"
         id="feGaussianBlur3592" />
    </filter>
    <filter
       inkscape:collect="always"
       style="color-interpolation-filters:sRGB"
       id="filter29890"
       x="-0.12260843"
       y="-0.59151878"
       width="1.2452169"
       height="2.1830376">
      <feGaussianBlur
         inkscape:collect="always"
         stdDeviation="2.3916965"
         id="feGaussianBlur29892" />
    </filter>
    <filter
       inkscape:collect="always"
       style="color-interpolation-filters:sRGB"
       id="filter29890-1"
       x="-0.12260843"
       y="-0.59151878"
       width="1.2452169"
       height="2.1830376">
      <feGaussianBlur
         inkscape:collect="always"
         stdDeviation="2.3916965"
         id="feGaussianBlur29892-6" />
    </filter>
    <filter
       inkscape:collect="always"
       style="color-interpolation-filters:sRGB"
       id="filter21205"
       x="-0.061421109"
       y="-0.060884549"
       width="1.1228422"
       height="1.1217691">
      <feGaussianBlur
         inkscape:collect="always"
         stdDeviation="34.337964"
         id="feGaussianBlur21207" />
    </filter>
  </defs>
  <g
     inkscape:label="Livello 1"
     inkscape:groupmode="layer"
     id="layer1">
    <path
       sodipodi:type="star"
       style="fill:#ffffff;fill-opacity:1;stroke:none;stroke-width:4.65497;stroke-linecap:round;stroke-miterlimit:4;stroke-dasharray:none;paint-order:normal;filter:url(#filter21205);opacity:0.50693069"
       id="path20929"
       inkscape:flatsided="false"
       sodipodi:sides="10"
       sodipodi:cx="-175.36247"
       sodipodi:cy="90.509666"
       sodipodi:r1="682.48669"
       sodipodi:r2="341.24335"
       sodipodi:arg1="0.81308978"
       sodipodi:arg2="1.1272491"
       inkscape:rounded="0"
       inkscape:randomized="0"
       d="m 293.68146,586.27763 -322.600668,-187.545 -58.38385,368.55885 -150.753232,-341.34701 -263.86699,263.85321 78.67681,-364.76606 -368.5619,58.36461 278.05499,-248.85687 -332.47871,-169.417297 371.22562,-37.892817 -169.39994,-332.487546 322.60067,187.54501 58.38385,-368.55886 150.75324,341.34701 L 151.19834,-508.77835 72.521523,-144.01229 441.08343,-202.3769 163.02844,46.479978 495.50714,215.89727 124.28153,253.79009 Z"
       transform="matrix(0.21482223,0,0,0.2148265,187.67176,130.55612)" />
    <ellipse
       style="opacity:0.34059406;fill:#ffffff;stroke-width:1.21766;stroke-linecap:square;stroke-miterlimit:4;stroke-dasharray:none;paint-order:stroke fill markers;filter:url(#filter3590)"
       id="path3566"
       cx="154.16107"
       cy="147.80005"
       rx="136.20055"
       ry="143.30992"
       transform="matrix(0.75752252,0,0,0.89033943,28.400333,31.174933)" />
    <g
       id="g6640"
       transform="translate(-13.27401,22.31561)">
      <path
         style="display:inline;fill:#ff9955;fill-opacity:1;stroke-width:1;stroke-linecap:square;stroke-miterlimit:4;stroke-dasharray:none;paint-order:stroke fill markers"
         d="m 239.21118,197.24714 c -2.15334,1.72228 -3.94616,3.90618 -5.93918,5.82423 -0.70491,1.01076 -5.6105,5.29242 -4.74891,6.74126 0.8358,1.74364 4.21233,0.27761 5.27786,1.88601 1.23079,0.70167 1.79015,-1.03148 2.2637,-1.84019 1.83187,-3.77139 3.60114,-7.69876 4.19706,-11.87501 -0.0238,-0.50292 -0.5892,-0.85022 -1.05053,-0.7363 z"
         id="path21677"
         sodipodi:nodetypes="ccccccc" />
      <path
         style="display:inline;fill:#e6e6e6;fill-opacity:1;stroke:none;stroke-width:1;stroke-linecap:square;stroke-miterlimit:4;stroke-dasharray:none;paint-order:stroke fill markers"
         d="m 222.71134,213.05255 c -2.49698,0.75289 -4.21714,3.00381 -6.29555,4.48914 -4.30384,3.66517 -8.99631,6.87135 -13.58556,10.12317 -1.11823,1.68187 -0.25585,3.96038 -0.61172,5.90222 -0.39729,1.24811 -0.0344,3.07506 1.60716,3.01119 1.99589,-0.50869 3.5678,-2.10304 5.45994,-2.92039 6.08002,-3.44211 12.47381,-6.70385 17.52071,-11.57956 0.71292,-1.67963 -0.66619,-3.4992 -1.11755,-5.14867 -0.76591,-1.33037 -0.963,-3.93378 -2.97743,-3.8771 z"
         id="path34139" />
      <path
         style="display:inline;fill:#e6e6e6;fill-opacity:1;stroke:none;stroke-width:1;stroke-linecap:square;stroke-miterlimit:4;stroke-dasharray:none;paint-order:stroke fill markers"
         d="m 229.16831,206.12585 c -1.97808,2.11135 -4.56578,3.75336 -6.12624,6.18618 0.56438,2.67254 2.05436,5.11102 2.97397,7.69308 1.07018,1.63483 3.10822,0.40978 3.93827,-0.80977 1.58141,-1.82845 3.639,-3.48308 4.36819,-5.84822 -0.84609,-2.38091 -1.70754,-4.87126 -2.9455,-7.05896 -0.49543,-0.74442 -1.54961,-0.61688 -2.20869,-0.16231 z"
         id="path34178" />
      <path
         style="display:inline;fill:none;stroke:#000000;stroke-width:4;stroke-linecap:butt;stroke-linejoin:miter;stroke-miterlimit:4;stroke-dasharray:none;stroke-opacity:1"
         d="m 202.59774,228.14268 c 14.77121,-9.20111 27.25591,-21.83554 38.57258,-33.65301 -3.50563,32.7506 -39.71883,38.69258 -38.53218,44.17708"
         id="path8389"
         sodipodi:nodetypes="ccc"
         inkscape:export-filename="C:\Users\FrancescoCottone\Desktop\thejournalist.png"
         inkscape:export-xdpi="72.57"
         inkscape:export-ydpi="72.57" />
    </g>
    <path
       style="display:inline;fill:#a05a2c;stroke-width:2;stroke-linecap:square;stroke-miterlimit:4;stroke-dasharray:none;paint-order:stroke fill markers"
       d="m 142.80241,8.6237554 c -2.38942,-0.068358 -3.90266,2.0272266 -5.19361,3.7276906 -6.50124,8.247764 -12.18896,17.209651 -19.80695,24.516146 -2.26211,2.337935 -4.75938,4.401889 -7.22021,6.494314 -0.66707,1.257364 1.1992,1.44457 2.01618,1.848281 6.89395,2.813281 12.82369,8.07052 15.87952,14.930554 0.88294,0.909254 2.26325,0.03402 3.35513,0.08096 10.26882,-1.221639 20.7522,-1.112342 31.0874,-0.400304 5.41407,0.485998 10.86464,1.048787 16.192,2.238092 1.70267,0.766218 2.93169,-1.059624 4.22315,-1.816856 6.8395,-4.755542 15.3747,-7.443306 23.76082,-7.069844 1.25026,-0.147201 2.74532,0.358589 3.8317,-0.385152 0.51316,-1.194765 -1.0219,-1.890278 -1.61182,-2.722284 -7.55806,-6.915044 -16.92463,-11.649438 -23.91981,-19.184403 -3.16569,-3.10846 -5.34583,-7.091204 -6.63747,-11.313401 -1.24857,-3.088854 -2.40512,-6.603926 -5.26071,-8.593497 -2.32005,-1.5032116 -5.19491,-0.201644 -7.02363,1.476708 -2.78776,2.174873 -4.99973,4.97078 -7.65442,7.281381 -1.53776,1.34392 -3.62628,0.214064 -4.78502,-1.081606 -3.10425,-3.014517 -5.10749,-7.175518 -8.86881,-9.4823277 -0.72453,-0.3822012 -1.54397,-0.5762096 -2.36344,-0.5444569 z"
       id="path19455" />
    <path
       style="display:inline;fill:#a05a2c;stroke-width:2;stroke-linecap:square;stroke-miterlimit:4;stroke-dasharray:none;paint-order:stroke fill markers"
       d="m 142.77865,74.092731 c -6.51978,0.14682 -13.14299,0.189021 -19.50728,1.765284 -1.39261,0.799539 -2.22856,2.336064 -3.17029,3.598534 -0.67744,0.82319 0.33158,1.897544 1.23034,1.459437 7.52189,-2.117829 15.39809,-2.904154 23.25013,-2.675867 10.05636,-0.01852 20.05401,1.346965 30.07564,2.1442 1.35643,-0.250243 0.76245,-1.968881 0.95115,-2.972591 0.21476,-1.433243 -1.63373,-1.236253 -2.55897,-1.434502 -10.0138,-1.450563 -20.15983,-1.9239 -30.27072,-1.884495 z"
       id="path19494" />
    <path
       style="display:inline;fill:#a05a2c;stroke-width:2;stroke-linecap:square;stroke-miterlimit:4;stroke-dasharray:none;paint-order:stroke fill markers"
       d="m 55.033722,98.584096 c -9.297776,2.617624 -19.724688,4.811174 -28.961133,7.700274 -1.444757,1.7545 3.067076,2.96261 4.050797,3.93578 11.586104,7.09068 23.834593,13.49362 36.969541,17.14048 2.189004,0.31948 6.477873,4.32596 7.065539,0.97435 0.440082,-3.34047 1.142736,-9.23161 0.878179,-12.5385 -4.048284,-0.16847 -9.016365,0.69527 -12.209092,-2.67271 -4.053734,-3.48016 -5.574983,-8.807 -6.513301,-13.839976 -0.23913,-0.467045 -0.757026,-0.754377 -1.28053,-0.699698 z"
       id="path19533"
       sodipodi:nodetypes="ccccccccc" />
    <path
       style="display:inline;fill:#a05a2c;stroke-width:2;stroke-linecap:square;stroke-miterlimit:4;stroke-dasharray:none;paint-order:stroke fill markers"
       d="m 236.72391,104.70775 c -2.86266,6.43009 -7.82323,12.29146 -14.23479,15.35928 -2.71169,1.44301 -5.99184,1.49263 -8.65476,2.82773 0.40746,2.65588 -0.16034,6.04637 1.35599,8.32713 14.90588,4.76839 30.90635,2.00882 45.67885,-1.85518 4.25908,-1.46456 10.69806,-1.67298 14.4512,-4.20472 0.20815,-2.50706 -5.046,-3.63642 -6.66046,-4.90686 -10.3613,-5.14509 -21.14891,-9.43626 -30.80949,-15.87707 -0.4971,-0.0585 -0.81989,-0.21174 -1.12654,0.32969 z"
       id="path19572"
       sodipodi:nodetypes="ccccccccc" />
    <path
       style="display:inline;fill:#ff9955;stroke-width:2;stroke-linecap:square;stroke-miterlimit:4;stroke-dasharray:none;paint-order:stroke fill markers"
       d="m 142.48779,79.089678 c -8.06465,0.258352 -16.55947,0.461584 -23.98095,3.940844 -6.8033,9.447526 -7.58453,6.678895 -6.3314,7.338055 -1.85706,-1.4596 -10.37429,9.022916 -12.07225,9.647563 -7.605025,4.96161 -15.675054,9.36048 -22.905455,14.81607 -2.491211,6.62291 -1.777259,13.99465 -1.903042,20.95973 0.199892,4.00463 0.197564,8.25733 1.591945,12.00258 5.323125,-1.6136 10.354945,-4.77385 15.569961,-6.96113 8.641821,-4.29485 17.720681,-7.89667 25.946891,-12.93119 5.43774,-4.38458 3.73745,-12.94 9.36998,-17.11006 8.78213,-6.74162 20.89481,-7.27726 31.16707,-4.65192 5.97307,1.35901 10.60984,6.28966 11.83185,12.26076 1.82875,6.45122 8.2663,9.89184 13.14958,13.8379 8.59533,5.86268 18.49316,12.12012 27.82157,16.71319 2.71314,0.0787 0.72239,-4.33811 1.10162,-6.04626 0.0895,-6.38895 1.46465,-14.70539 0.32485,-21.01798 -1.84578,-2.83681 -6.44477,-0.8405 -8.84412,-3.16956 -7.01534,-4.96013 -1.96704,-1.88248 -8.43669,-7.32048 1.57252,-1.37661 -2.43154,-2.1086 -17.27887,-19.13686 -2.49587,-3.182266 -3.29333,-7.243516 -3.90951,-11.043216 -10.67409,-1.166297 -21.44665,-2.192748 -32.21303,-2.128036 z"
       id="path19687"
       sodipodi:nodetypes="ccccccccccccccccccccc" />
    <path
       style="display:inline;fill:#000000;stroke:#000000;stroke-width:4.00002;stroke-linecap:butt;stroke-linejoin:miter;stroke-miterlimit:4;stroke-dasharray:none;stroke-opacity:1"
       d="m 109.80247,97.130857 c 14.42193,3.539973 32.51792,4.846943 3.44545,-4.00071 -23.814604,-7.357952 -34.732325,-1.555891 -3.44545,4.00071 z"
       id="path2699"
       sodipodi:nodetypes="ccc"
       inkscape:export-filename="C:\Users\FrancescoCottone\Desktop\thejournalist.png"
       inkscape:export-xdpi="72.57"
       inkscape:export-ydpi="72.57" />
    <ellipse
       style="opacity:1;fill:#ff5555;stroke-width:3.65147;stroke-linecap:round;paint-order:stroke fill markers;filter:url(#filter29890)"
       id="path29866"
       cx="104.60462"
       cy="124.58872"
       rx="23.408144"
       ry="4.8519773"
       transform="matrix(1.3069229,-0.39567951,0.26023226,1.987158,-65.110241,-90.054464)" />
    <path
       style="display:inline;fill:#000000;stroke:#000000;stroke-width:4.00002;stroke-linecap:butt;stroke-linejoin:miter;stroke-miterlimit:4;stroke-dasharray:none;stroke-opacity:1"
       d="m 183.0425,97.130856 c -14.42193,3.539964 -32.51792,4.846944 -3.44545,-4.000708 23.81461,-7.357952 34.73233,-1.555891 3.44545,4.000708 z"
       id="path2699-6"
       sodipodi:nodetypes="ccc"
       inkscape:export-filename="C:\Users\FrancescoCottone\Desktop\thejournalist.png"
       inkscape:export-xdpi="72.57"
       inkscape:export-ydpi="72.57" />
    <path
       style="display:inline;fill:#ff9955;stroke-width:2;stroke-linecap:square;stroke-miterlimit:4;stroke-dasharray:none;paint-order:stroke fill markers"
       d="m 205.18579,53.995603 c -8.62269,0.153167 -17.37924,3.315811 -23.82388,9.074383 -5.32225,5.829866 -4.98827,14.414568 -5.03224,21.798152 2.24695,8.282133 9.4797,13.893999 14.90578,20.129422 6.05237,5.86162 11.66005,13.14808 19.94688,15.87458 8.80481,1.58556 17.07256,-4.56481 21.86326,-11.47733 4.95337,-6.89115 4.80677,-15.796996 3.40646,-23.801311 -1.42478,-9.962568 -5.89984,-20.001857 -13.90298,-26.354804 -4.61666,-3.024783 -9.78501,-5.659999 -15.47709,-5.223455 -0.62852,-0.01998 -1.25741,-0.02527 -1.88619,-0.01963 z"
       id="path19726" />
    <path
       style="display:inline;fill:#ffff00;fill-opacity:1;stroke-width:1;stroke-linecap:square;stroke-miterlimit:4;stroke-dasharray:none;paint-order:stroke fill markers"
       d="m 111.85828,14.358229 c -6.24774,1.822934 -12.479306,3.704341 -18.706488,5.597162 -0.531601,0.129045 -0.768376,0.727078 -0.586819,1.217642 1.351941,6.650497 2.825251,13.27563 4.243201,19.912247 0.14221,0.583081 0.77602,0.680572 1.28662,0.628902 2.084886,0.06936 4.143396,0.524975 6.106706,1.215302 1.41425,0.364514 2.85166,0.53067 4.24847,0.949037 0.75491,0.0488 1.27018,-0.640136 1.84523,-1.021194 2.62885,-2.100977 5.17803,-4.321542 7.49541,-6.761292 0.42989,-0.582149 -0.0554,-1.289833 -0.13626,-1.915398 -1.62621,-6.417611 -3.2375,-12.838988 -4.88011,-19.252416 -0.13885,-0.391137 -0.50366,-0.619546 -0.91596,-0.569992 z"
       id="path23457" />
    <ellipse
       style="opacity:1;mix-blend-mode:normal;fill:#ff5555;stroke-width:3.65147;stroke-linecap:round;paint-order:stroke fill markers;filter:url(#filter29890-1)"
       id="path29866-9"
       cx="104.60462"
       cy="124.58872"
       rx="23.408144"
       ry="4.8519773"
       transform="matrix(-1.3069229,-0.39567951,-0.26023226,1.987158,361.89481,-88.955959)" />
    <path
       style="display:inline;fill:#e6e6e6;fill-opacity:1;stroke:none;stroke-width:1;stroke-linecap:square;stroke-miterlimit:4;stroke-dasharray:none;paint-order:stroke fill markers"
       d="m 147.26075,104.74787 c -7.82675,-0.0825 -16.13713,-0.25258 -21.60802,5.54514 -3.05816,4.59624 -2.38593,11.19608 -7.00194,14.87939 -4.099,3.39788 -9.31687,4.97582 -13.96568,7.45235 -8.989456,4.41062 -18.297338,8.21805 -27.071053,13.04263 -2.495444,1.62976 -0.414867,7.32282 0.08916,9.45191 4.179835,13.13459 14.21302,24.07468 26.766863,29.68606 1.66658,0.48675 2.7718,1.16103 1.52154,2.70659 -3.209,7.36374 -0.241,14.25068 -5.28653,20.36304 -5.707354,7.44442 -4.225879,9.43115 -6.943654,27.49365 -13.045801,38.84897 83.863784,27.16356 100.977624,15.84802 7.78978,-3.62 7.69054,-19.9481 8.87484,-28.65993 0.86087,-6.35953 1.59549,-12.94129 0.43265,-19.30594 -2.25068,-9.13645 -10.43509,-14.75891 -17.25414,-20.42573 -0.70597,-0.87277 -4.06911,-2.4596 -1.30713,-2.4115 8.90588,-1.40865 17.01888,-6.89161 21.45237,-14.77124 2.55844,-4.50833 4.74175,-13.67875 5.37953,-18.84671 -0.61939,-2.25747 -3.55258,-2.64768 -5.18295,-4.02302 -9.22085,-8.88242 -34.77183,-15.50556 -36.51006,-27.4976 -1.59147,-6.69739 -7.75126,-11.24458 -14.28671,-12.48159 -2.98378,-0.58386 -6.0438,1.94792 -9.07671,1.95448 z m -1.58954,7.81168 c 1.91288,0.14671 5.41922,-0.0582 5.74421,2.45189 -0.27937,3.39914 -3.37632,1.30212 -6.11428,2.54122 -0.65688,0.98425 1.25886,-4.43455 0.37007,-4.99311 -2.94121,-0.0518 -8.43068,2.99049 -8.43068,2.99049 1.71693,-2.54831 5.61832,-2.83211 8.43068,-2.99049 z"
       id="path33672"
       sodipodi:nodetypes="ccccccccccccccccccccccccccc" />
    <path
       style="display:inline;fill:#e6e6e6;fill-opacity:1;stroke:none;stroke-width:1;stroke-linecap:square;stroke-miterlimit:4;stroke-dasharray:none;paint-order:stroke fill markers"
       d="m 145.2225,222.66122 c -2.96468,5.8295 -6.74976,11.40313 -12.1689,15.21853 -7.02614,5.51706 -16.4755,5.29463 -24.87385,5.61295 -4.21132,0.005 -11.352606,-2.61427 -15.340616,-4.23247 -2.32548,-0.83894 -0.435822,4.84315 -0.704532,6.62539 -0.803567,3.83016 -2.737803,8.81229 0.632909,11.98483 1.546093,1.47854 3.555393,2.47544 5.680633,2.7559 -2.92725,2.37093 -6.157597,5.18591 -6.565637,9.15053 0.98372,1.90421 0.185128,1.41375 -1.23362,1.27236 -5.083757,0.58494 -9.280234,4.54676 -11.709109,8.85745 -1.929209,3.09049 -1.608693,7.42622 1.411182,9.71254 3.351238,3.23673 8.510296,2.62239 12.763685,2.17784 4.525349,-0.92316 9.435515,-1.49437 13.350525,-4.11083 2.66801,-2.119 2.99,-6.07724 1.27894,-8.90207 -1.81707,-4.78546 0.0459,-10.10264 3.13518,-13.92057 7.20477,4.10622 15.30536,6.45146 23.57999,6.91192 7.71004,0.67095 15.51667,0.81782 23.12424,-0.82495 9.1981,-1.57001 18.23931,-3.90575 27.27692,-6.19879 2.63597,2.03378 5.71778,4.6046 6.11619,8.09964 -1.58149,2.60162 -4.53207,4.95729 -4.00706,8.40216 0.92752,4.55779 5.74373,7.08268 9.92741,8.04775 5.83213,0.97076 11.77075,1.80597 17.69083,1.67942 3.86236,-0.33052 7.03813,-3.94494 6.54592,-7.85699 0.055,-5.38369 -4.43822,-9.82469 -9.60366,-10.63556 -3.06686,-1.08191 -6.77658,1.50191 -9.46478,-0.73448 -1.38686,-1.1855 0.81264,-2.85578 0.23681,-4.40389 -0.45025,-3.94769 -4.21812,-6.66501 -6.49185,-9.20607 2.9617,-2.55601 7.43053,-4.1751 8.68135,-8.19025 0.25895,-3.4239 -1.62771,-6.63118 -1.34982,-10.09621 -0.31094,-3.04083 0.42531,-6.43724 -0.49329,-9.4224 -2.58985,-1.68304 -3.49856,2.33566 -5.00388,3.63434 -8.59422,9.57017 -23.52133,13.61493 -35.39567,8.10747 -5.70643,-2.5764 -9.94066,-7.6191 -12.1522,-13.4085 -1.191,-2.0565 -1.42754,-4.57999 -2.80895,-6.4797 -0.81897,-0.285 -1.39192,-0.18743 -2.06529,0.37271 z"
       id="path33711"
       sodipodi:nodetypes="ccccccccccccccccccccccccccccccccccc" />
    <path
       style="display:inline;opacity:0.29505;fill:#000000;fill-opacity:1;stroke-width:1;stroke-linecap:square;stroke-miterlimit:4;stroke-dasharray:none;paint-order:stroke fill markers"
       d="m 143.01696,78.850415 c -8.54204,-0.07858 -17.20162,1.013746 -25.23492,3.953227 -3.83162,4.968396 -7.9243,9.717082 -12.92408,13.528612 -6.899166,5.529896 -14.961866,9.316316 -22.093207,14.515576 -1.813083,1.27273 -3.772032,2.40987 -5.700844,3.41283 -1.30429,2.59583 -1.234255,5.67655 -1.674548,8.50851 -0.68035,8.14776 -0.889715,-4.65414 1.03841,3.34142 0.893868,1.43312 2.527194,-0.28442 3.653525,-0.52659 12.228565,-5.64866 24.475094,-11.27644 36.524374,-17.29766 3.09459,-2.06316 5.47153,-5.20901 6.2425,-8.884724 1.00997,-3.239048 1.36165,-7.150142 4.38785,-9.257832 19.20158,-16.256317 -12.73167,27.160246 19.17713,13.634826 18.96116,6.92421 20.84877,-18.16037 17.25062,-17.583425 9.38165,17.774855 23.08426,27.351715 39.13458,37.112975 2.72481,1.53328 5.35601,3.28503 8.22222,4.53926 1.70995,-0.0805 1.49177,-2.43081 1.81797,-3.63751 0.82587,-7.42608 0.97211,6.17683 0.0657,-1.23713 -1.29056,-1.53099 -3.58257,-1.34342 -5.21624,-2.3983 -7.48543,-3.93405 -12.98331,-10.49955 -18.71665,-16.54234 -1.31336,-1.24078 -2.36421,-2.8517 -3.87834,-3.83729 0,0 -18.96921,-13.770412 -2.98897,-0.983403 1.26656,0.47897 1.5177,-1.268783 0.6568,-1.869136 -3.53113,-4.314322 -7.79341,-9.073687 -7.45445,-15.045073 0.0799,-1.901116 -2.45888,-1.151549 -3.66871,-1.526969 -9.52701,-0.80291 -19.03989,-2.104964 -28.62067,-1.919854 z"
       id="path23943"
       sodipodi:nodetypes="cccccccccccccccccccccccccc" />
    <path
       style="display:inline;opacity:0.29505;fill:#000000;stroke:none;stroke-width:0.264583px;stroke-linecap:butt;stroke-linejoin:miter;stroke-opacity:1"
       d="m 176.32967,84.868136 c -1.78554,-7.59459 -0.57366,-23.87536 8.76183,-22.70723 8.90761,1.11459 12.36629,12.4858 17.01091,19.55464 5.19436,10.73172 17.05443,18.863764 16.31823,31.894324 -0.31311,11.14354 -14.8861,8.5423 -19.8349,2.18189 -8.82293,-6.04443 -14.43314,-15.01705 -19.79438,-23.956144 -1.44084,-2.01711 -2.69404,-4.40076 -2.46169,-6.96748 z"
       id="path24710"
       sodipodi:nodetypes="csccccc" />
    <path
       style="display:inline;opacity:0.29505;fill:#000000;stroke:none;stroke-width:0.264583px;stroke-linecap:butt;stroke-linejoin:miter;stroke-opacity:1"
       d="m 183.33502,60.242636 c 9.07928,-9.042038 29.81127,-4.498446 27.59252,-7.454994 -4.33139,-5.999985 -16.63717,-16.963668 -26.053,-22.594438 -5.74793,-6.085916 -10.3653,-27.683425 -15.94769,-17.418387 -6.77621,12.460278 -5.19443,38.470034 7.88781,42.671785 2.12935,1.65508 4.16554,3.456794 6.52036,4.796034 z"
       id="path25643"
       sodipodi:nodetypes="cccscc" />
    <path
       style="display:inline;opacity:0.29505;fill:#000000;stroke:none;stroke-width:0.264583px;stroke-linecap:butt;stroke-linejoin:miter;stroke-opacity:1"
       d="m 81.378364,289.65976 c 4.95673,1.38003 10.18217,1.52589 15.24716,2.06932 4.328166,-1.02127 8.922486,-3.81077 11.315286,-7.45369 -1.41606,-5.62414 -5.24037,1.31365 -8.101746,1.83754 -4.46766,1.76531 -9.40382,1.88504 -14.13709,1.66202 -1.40441,0.0312 -5.21604,-0.70524 -4.32361,1.88481 z"
       id="path28536" />
    <path
       style="display:inline;opacity:0.29505;fill:#000000;stroke:none;stroke-width:0.264583px;stroke-linecap:butt;stroke-linejoin:miter;stroke-opacity:1"
       d="m 190.18825,286.02174 c 2.38001,1.79564 5.428,2.19665 8.17858,3.13887 3.49264,0.58902 7.00566,1.19002 10.55363,1.1451 2.38801,0.20462 4.80062,0.21934 7.18376,0.0745 2.32147,-0.57443 0.33616,-2.33155 -1.20238,-1.61782 -4.57313,0.49117 -9.03823,-1.02423 -13.45977,-1.99991 -2.82798,-0.58159 -5.31833,-2.19005 -7.34534,-4.18732 -1.60318,-1.17045 -5.08934,-4.0095 -6.20048,-0.9699 -0.0889,1.73304 1.59083,2.9491 2.292,4.41651 z"
       id="path29110" />
    <path
       style="display:inline;fill:#ffffff;stroke:none;stroke-width:0.264583px;stroke-linecap:butt;stroke-linejoin:miter;stroke-opacity:1"
       d="m 147.70335,100.32873 c -4.19511,2.99537 -9.92213,0.87306 -14.23462,3.68215 -2.4113,1.3287 -4.62313,3.00045 -6.79017,4.68347 -1.7878,4.32088 5.15916,1.90827 7.47184,2.44669 6.26907,-0.097 12.56466,0.1757 18.81718,-0.0986 3.92696,-0.87021 8.33712,-1.64256 11.17698,-4.74027 0.84538,-3.91551 -4.94439,-3.29857 -7.42598,-4.38956 -2.61862,-0.6899 -6.51513,-0.36521 -8.89189,-1.47105 l -0.12334,-0.11281 z"
       id="path36024"
       sodipodi:nodetypes="sccccccccs" />
    <path
       style="display:inline;opacity:0.605941;fill:#ffffff;stroke:none;stroke-width:0.264583px;stroke-linecap:butt;stroke-linejoin:miter;stroke-opacity:1"
       d="m 234.83669,83.152476 c -1.63975,-6.31927 -1.68626,-13.63202 -5.30305,-18.99797 -2.44215,-3.62322 -12.36728,-10.83625 -13.037,-6.107958 -0.77352,5.461088 6.24517,9.302958 9.39697,14.011838 3.17702,4.74656 3.54399,10.68287 6.64273,15.30627 2.56434,3.82606 2.81592,-2.22526 2.30035,-4.21218 z"
       id="path37603"
       sodipodi:nodetypes="ssssss" />
    <path
       style="display:inline;opacity:0.605941;fill:#ffffff;stroke:none;stroke-width:0.264583px;stroke-linecap:butt;stroke-linejoin:miter;stroke-opacity:1"
       d="m 67.629254,63.363686 c 3.69678,-5.381059 7.42533,-11.908718 12.65543,-15.7193 3.53151,-2.572999 17.43573,-4.930017 14.33853,-1.295096 -2.3325,2.737463 -9.30636,6.031343 -13.61259,9.966553 -4.21632,3.853043 -17.70729,29.082533 -22.19715,32.371783 -3.71555,2.722 7.65344,-23.63201 8.81578,-25.32394 z"
       id="path37603-3"
       sodipodi:nodetypes="ssssss" />
    <path
       style="display:inline;opacity:0.605941;fill:#ffffff;stroke:none;stroke-width:0.264583px;stroke-linecap:butt;stroke-linejoin:miter;stroke-opacity:1"
       d="m 207.68795,120.57449 c 1.19461,10.67754 2.07317,22.17451 -1.45851,32.42429 -3.73213,11.11808 -9.03834,18.41719 -19.67606,22.77076 l -4.47375,-2.16131 c 15.74853,-7.25755 22.82991,-25.64411 21.41441,-42.13565 -1.19864,-4.12524 2.98818,-16.52408 4.19391,-10.89809 z"
       id="path38455"
       sodipodi:nodetypes="cccccc" />
    <path
       style="display:inline;opacity:0.605941;fill:#ffffff;stroke:none;stroke-width:0.264583px;stroke-linecap:butt;stroke-linejoin:miter;stroke-opacity:1"
       d="m 194.48773,238.59519 c 0.44373,4.18159 1.04937,8.44265 0.25133,12.62146 -1.88055,3.50843 -5.72813,5.21038 -9.27721,6.521 -1.85242,1.41994 -5.41291,0.9537 -6.63737,1.9359 2.99762,-0.17564 4.60949,-3.21928 6.5817,-5.09337 1.93914,-1.63442 3.30841,-3.71822 4.96077,-5.5918 1.67628,-2.05924 1.8914,-4.91382 1.28872,-7.40854 -0.67014,-2.48913 3.64133,-0.54318 2.83206,-2.98465 z"
       id="path38721" />
    <ellipse
       style="display:inline;fill:#ffffff;fill-opacity:1;stroke:none;stroke-width:1;stroke-linecap:square;stroke-miterlimit:4;stroke-dasharray:none;paint-order:stroke fill markers"
       id="path42465"
       cx="213.80234"
       cy="278.87802"
       rx="2.778125"
       ry="3.2411458" />
    <ellipse
       style="display:inline;fill:#ffffff;fill-opacity:1;stroke:none;stroke-width:1;stroke-linecap:square;stroke-miterlimit:4;stroke-dasharray:none;paint-order:stroke fill markers"
       id="path42467"
       cx="86.934631"
       cy="279.47333"
       rx="2.3812499"
       ry="2.5135417" />
    <path
       style="display:inline;fill:#ff9955;stroke-width:2;stroke-linecap:square;stroke-miterlimit:4;stroke-dasharray:none;paint-order:stroke fill markers"
       d="m 96.818254,42.459357 c -12.765244,0.93517 -22.481035,11.017144 -29.143402,21.12305 -6.24377,10.52649 -10.90086,22.714362 -10.262976,35.124678 0.509587,6.983065 4.344829,15.597685 12.308284,16.111685 8.153718,0.32938 13.991034,-6.47116 20.657132,-10.0025 10.161608,-5.865626 19.960718,-12.872906 26.625308,-22.721677 3.67353,-5.570307 9.79744,-9.782577 12.84637,-15.723018 0.71821,-4.044151 -3.57032,-8.226639 -5.58226,-11.454063 C 117.8811,46.685329 107.16944,43.661311 97.275054,42.446953 Z"
       id="path19648"
       sodipodi:nodetypes="cccccccccc" />
    <path
       style="font-variation-settings:normal;display:inline;fill:none;fill-opacity:1;stroke:#000000;stroke-width:4;stroke-linecap:butt;stroke-linejoin:miter;stroke-miterlimit:4;stroke-dasharray:none;stroke-dashoffset:0;stroke-opacity:1;stop-color:#000000"
       d="m 76.447854,113.74134 c 0,0 -13.46759,54.23935 30.774586,71.91324 -6.13632,9.33402 -25.651422,75.89461 -8.774296,74.97177"
       id="path909"
       sodipodi:nodetypes="ccc"
       inkscape:export-filename="C:\Users\FrancescoCottone\Desktop\thejournalist.png"
       inkscape:export-xdpi="72.57"
       inkscape:export-ydpi="72.57" />
    <path
       style="font-variation-settings:normal;display:inline;fill:none;fill-opacity:1;stroke:#000000;stroke-width:4;stroke-linecap:butt;stroke-linejoin:miter;stroke-miterlimit:4;stroke-dasharray:none;stroke-dashoffset:0;stroke-opacity:1;stop-color:#000000"
       d="m 213.17002,121.88783 c 0,0 8.15001,54.18457 -29.91417,58.52337 8.45155,7.37505 22.51464,17.31395 22.8124,29.95897 -3.14911,15.66918 -3.29809,30.93352 -3.413,33.12985"
       id="path911"
       sodipodi:nodetypes="cccc"
       inkscape:export-filename="C:\Users\FrancescoCottone\Desktop\thejournalist.png"
       inkscape:export-xdpi="72.57"
       inkscape:export-ydpi="72.57" />
    <path
       style="display:inline;fill:#000000;stroke:#000000;stroke-width:4;stroke-linecap:butt;stroke-linejoin:miter;stroke-miterlimit:4;stroke-dasharray:none;stroke-opacity:1"
       d="m 146.20038,107.79702 c -3.86685,-0.19506 -12.00662,1.57393 -8.20906,6.89515 3.53662,4.546 10.54468,2.68556 13.43811,-1.55489 3.06048,-4.26923 -1.88849,-5.66714 -5.22905,-5.34026 z"
       id="path2019"
       inkscape:export-filename="C:\Users\FrancescoCottone\Desktop\thejournalist.png"
       inkscape:export-xdpi="72.57"
       inkscape:export-ydpi="72.57" />
    <path
       style="fill:#ff0000;fill-opacity:1;stroke:#000000;stroke-width:1;stroke-linecap:round;stroke-miterlimit:4;stroke-dasharray:none;paint-order:normal"
       d="m 144.2625,162.43086 c -7.24295,-1.14828 -12.78797,-5.71969 -17.59764,-14.50779 -1.97508,-3.60881 -4.86593,-10.87841 -4.43487,-11.15232 0.18439,-0.11717 2.00653,-0.6656 4.0492,-1.21873 4.12994,-1.11833 11.5391,-3.60506 16.03996,-5.38349 l 2.94342,-1.16303 10.73954,2.40152 c 5.90675,1.32084 11.82961,2.61397 13.16191,2.87363 l 2.42236,0.4721 -2.28781,6.17114 c -3.43681,9.27042 -6.20057,14.07978 -9.98402,17.37365 -4.03459,3.51251 -9.50047,5.01346 -15.05205,4.13332 z"
       id="path17394" />
    <path
       style="display:inline;fill:none;stroke:#000000;stroke-width:4;stroke-linecap:butt;stroke-linejoin:miter;stroke-miterlimit:4;stroke-dasharray:none;stroke-opacity:1"
       d="m 129.84897,66.371576 c -1.84733,-13.21227 -14.06409,-20.063532 -25.56528,-23.110384 -9.918476,-2.627566 -22.372936,1.581622 -28.562686,9.682897 -9.6383,8.919627 -15.37321,21.065087 -17.77255,33.833797 -2.44421,9.05643 -1.7126,21.149324 6.40981,27.083744 9.82692,5.46411 18.02742,-3.9384 25.87603,-8.44165 9.58076,-5.31717 18.812766,-11.465474 25.319036,-20.487474 5.0199,-6.04341 8.79326,-12.89192 14.29564,-18.56093 z"
       id="path2703"
       sodipodi:nodetypes="cscccccc"
       inkscape:export-filename="C:\Users\FrancescoCottone\Desktop\thejournalist.png"
       inkscape:export-xdpi="72.57"
       inkscape:export-ydpi="72.57" />
    <path
       style="display:inline;fill:none;stroke:#000000;stroke-width:4;stroke-linecap:butt;stroke-linejoin:miter;stroke-miterlimit:4;stroke-dasharray:none;stroke-opacity:1"
       d="m 212.45401,53.832034 c -11.20212,-1.846578 -23.2691,1.499854 -31.84164,8.934382 -4.99302,5.67874 -4.47469,13.75421 -5.09302,20.80222 0.4635,5.30985 4.2805,9.61931 7.52315,13.56222 9.40189,9.603154 19.68771,23.639744 30.23089,24.768444 15.99048,-0.52539 27.08403,-16.52218 24.15481,-29.833134 -2.72963,-12.40398 -4.21755,-26.80579 -14.8894,-33.89024 -3.11621,-2.068678 -6.28182,-4.055292 -10.08479,-4.343892 z"
       id="path2705"
       sodipodi:nodetypes="cccccssc"
       inkscape:export-filename="C:\Users\FrancescoCottone\Desktop\thejournalist.png"
       inkscape:export-xdpi="72.57"
       inkscape:export-ydpi="72.57" />
    <path
       style="display:inline;fill:none;stroke:#000000;stroke-width:4;stroke-linecap:butt;stroke-linejoin:miter;stroke-miterlimit:4;stroke-dasharray:none;stroke-opacity:1"
       d="m 117.69104,82.380736 c 19.89534,-6.90372 38.71613,-2.98162 57.79321,-1.64171"
       id="path2707"
       sodipodi:nodetypes="cc"
       inkscape:export-filename="C:\Users\FrancescoCottone\Desktop\thejournalist.png"
       inkscape:export-xdpi="72.57"
       inkscape:export-ydpi="72.57" />
    <path
       style="display:inline;fill:none;stroke:#000000;stroke-width:4;stroke-linecap:butt;stroke-linejoin:miter;stroke-miterlimit:4;stroke-dasharray:none;stroke-opacity:1"
       d="m 74.158464,128.33498 c -8.49775,3.10219 -45.15908,-16.61885 -49.95067,-21.67267 l 32.37786,-9.031634"
       id="path4073"
       sodipodi:nodetypes="ccc"
       inkscape:export-filename="C:\Users\FrancescoCottone\Desktop\thejournalist.png"
       inkscape:export-xdpi="72.57"
       inkscape:export-ydpi="72.57" />
    <path
       style="display:inline;fill:none;stroke:#000000;stroke-width:4;stroke-linecap:butt;stroke-linejoin:miter;stroke-miterlimit:4;stroke-dasharray:none;stroke-opacity:1"
       d="m 108.75112,44.371185 c 14.00706,-10.477354 20.45318,-22.36869 30.63302,-34.784416 7.75269,-5.616104 11.69971,8.148466 16.94061,10.349361 2.23897,0.940248 3.37384,-1.847117 8.04614,-6.098653 10.05447,-10.422368 13.76001,2.961414 15.51437,7.99643 5.09692,14.628164 29.44828,23.624098 32.56875,31.998127"
       id="path4753"
       sodipodi:nodetypes="ccscsc"
       inkscape:export-filename="C:\Users\FrancescoCottone\Desktop\thejournalist.png"
       inkscape:export-xdpi="72.57"
       inkscape:export-ydpi="72.57" />
    <path
       style="display:inline;fill:none;stroke:#000000;stroke-width:4;stroke-linecap:butt;stroke-linejoin:miter;stroke-miterlimit:4;stroke-dasharray:none;stroke-opacity:1"
       d="m 96.783504,42.116167 -4.76326,-22.093728 20.733676,-6.214329 5.64942,22.353486"
       id="path5698"
       sodipodi:nodetypes="cccc"
       inkscape:export-filename="C:\Users\FrancescoCottone\Desktop\thejournalist.png"
       inkscape:export-xdpi="72.57"
       inkscape:export-ydpi="72.57" />
    <path
       style="display:inline;fill:none;stroke:#000000;stroke-width:4;stroke-linecap:butt;stroke-linejoin:miter;stroke-miterlimit:4;stroke-dasharray:none;stroke-opacity:1"
       d="m 121.19173,135.52612 c 4.43805,14.54904 11.13218,29.23046 26.59169,28.82176 15.68573,-0.41467 19.68913,-16.22348 24.22615,-30.59723"
       id="path6269"
       sodipodi:nodetypes="cac"
       inkscape:export-filename="C:\Users\FrancescoCottone\Desktop\thejournalist.png"
       inkscape:export-xdpi="72.57"
       inkscape:export-ydpi="72.57" />
    <path
       style="display:inline;fill:none;stroke:#000000;stroke-width:4;stroke-linecap:butt;stroke-linejoin:miter;stroke-miterlimit:4;stroke-dasharray:none;stroke-opacity:1"
       d="m 99.354744,260.33309 c -3.38836,2.82039 -8.21072,5.95847 -6.61888,11.11542 -8.31895,-1.73233 -22.44597,14.0025 -9.38132,19.73933 6.64359,1.30006 13.44567,0.0625 19.760466,-2.17084 4.57039,-0.72641 7.06639,-6.2657 4.16858,-10.00763 -1.88308,-5.14215 -0.0694,-10.61824 3.54729,-14.66243 11.38421,7.38861 25.372,7.56134 38.05413,7.45441 12.225,-1.28926 24.14973,-4.41732 36.02721,-7.46451 3.71262,2.41543 6.42845,5.98475 6.64672,9.02411 -3.47005,2.79415 -6.37418,7.84591 -2.30027,11.58667 5.7835,5.72244 14.42419,4.45093 21.78361,5.69534 4.29061,0.96609 9.73601,-1.50394 9.76141,-6.41046 0.43636,-5.3895 -3.13843,-10.39315 -8.6269,-11.13694 -4.34643,-2.16789 -8.25793,2.68235 -11.2136,-2.15889 3.14126,-4.07609 -1.54266,-9.82135 -5.86692,-12.76781 3.38583,-2.85399 9.88158,-5.21663 9.24803,-10.11899"
       id="path6693"
       sodipodi:nodetypes="cccccccccccccccc"
       inkscape:export-filename="C:\Users\FrancescoCottone\Desktop\thejournalist.png"
       inkscape:export-xdpi="72.57"
       inkscape:export-ydpi="72.57" />
    <path
       style="display:inline;fill:none;stroke:#000000;stroke-width:4;stroke-linecap:butt;stroke-linejoin:miter;stroke-miterlimit:4;stroke-dasharray:none;stroke-opacity:1"
       d="m 92.735864,271.44851 c 0.62188,1.61787 0.73871,4.33785 2.66436,4.31828"
       id="path7450"
       sodipodi:nodetypes="cc"
       inkscape:export-filename="C:\Users\FrancescoCottone\Desktop\thejournalist.png"
       inkscape:export-xdpi="72.57"
       inkscape:export-ydpi="72.57" />
    <path
       style="display:inline;fill:none;stroke:#000000;stroke-width:4;stroke-linecap:butt;stroke-linejoin:miter;stroke-miterlimit:4;stroke-dasharray:none;stroke-opacity:1"
       d="m 236.93483,103.19045 c 9.08697,10.10616 21.94141,10.71667 38.38557,21.97154 -17.09125,6.90607 -43.66462,12.79054 -61.4009,6.19021"
       id="path8109"
       sodipodi:nodetypes="ccc"
       inkscape:export-filename="C:\Users\FrancescoCottone\Desktop\thejournalist.png"
       inkscape:export-xdpi="72.57"
       inkscape:export-ydpi="72.57" />
    <g
       id="g11764"
       transform="rotate(5.6686099,255.49386,6949.1764)"
       inkscape:export-filename="C:\Users\FrancescoCottone\Desktop\thejournalist.png"
       inkscape:export-xdpi="72.57"
       inkscape:export-ydpi="72.57"
       style="display:inline;stroke-width:4;stroke-miterlimit:4;stroke-dasharray:none">
      <path
         style="fill:none;stroke:#000000;stroke-width:4;stroke-linecap:butt;stroke-linejoin:miter;stroke-miterlimit:4;stroke-dasharray:none;stroke-opacity:1"
         d="m -555.17303,120.88959 c 6.57172,-3.48588 34.82597,-6.25776 52.46466,-4.86973"
         id="path10057"
         sodipodi:nodetypes="cc" />
      <path
         style="fill:none;stroke:#000000;stroke-width:4;stroke-linecap:butt;stroke-linejoin:miter;stroke-miterlimit:4;stroke-dasharray:none;stroke-opacity:1"
         d="m -499.3805,102.25875 c -5.98475,-1.2815 -31.9173,-2.03617 -51.94501,3.37622"
         id="path10059"
         sodipodi:nodetypes="cc" />
      <path
         style="fill:#000000;stroke-width:15.1181;stroke-linecap:square;stroke-miterlimit:4;stroke-dasharray:none;paint-order:stroke fill markers"
         d="m -1947.627,385.97949 c -43.0179,0.009 -86.1821,4.12898 -128.0859,14.05469 -1.6627,0.16852 -4.7436,0.937 -3.4795,3.25293 1.8978,5.41781 3.8839,10.81999 5.1983,16.43555 -7.1746,9.15993 -13.7842,18.79881 -19.4971,28.92969 -0.2566,2.95404 3.4903,1.46363 5.0596,1.10058 35.0541,-8.63631 71.1542,-11.74465 107.0826,-13.98587 24.7115,-1.46206 49.6015,-1.31435 74.3412,-0.52878 2.0217,0.48905 5.1668,0.73937 4.4648,-2.33633 0.3093,-14.64365 2.27,-29.69691 9.3819,-42.76132 0.4481,-2.87768 -3.6235,-2.01712 -5.3916,-2.48145 -16.3078,-1.74624 -32.6953,-1.70855 -49.0743,-1.67969 z"
         id="path11641"
         transform="scale(0.26458333)" />
    </g>
    <path
       style="font-variation-settings:normal;display:inline;fill:none;fill-opacity:1;stroke:#000000;stroke-width:1;stroke-linecap:butt;stroke-linejoin:miter;stroke-miterlimit:4;stroke-dasharray:none;stroke-dashoffset:0;stroke-opacity:1;stop-color:#000000"
       d="m 129.26794,81.400714 c 10.90304,-1.005511 21.92046,-1.092988 33.07292,-0.09654 -10.89201,0.320549 -21.78403,1.217925 -32.67604,4.247458 11.46398,-1.149896 22.78429,-1.356248 33.99895,-0.868801 -12.28702,1.139496 -24.16421,3.026635 -35.45416,5.985045 11.68397,-1.269341 23.39229,-2.343187 35.32187,-1.641056 -11.07457,1.599886 -21.82041,3.679512 -32.14687,6.371186 10.11901,-1.30602 19.86581,-1.88778 29.23646,-1.737601 l -21.29896,3.378655 8.73125,0.386136"
       id="path21466"
       sodipodi:nodetypes="cccccccccc" />
    <path
       style="display:inline;opacity:0.29505;fill:#000000;stroke:none;stroke-width:0.264583px;stroke-linecap:butt;stroke-linejoin:miter;stroke-opacity:1"
       d="m 69.325164,115.8526 c 15.23964,-5.28728 33.494856,-7.59691 43.810076,-21.433574 6.13839,-7.94558 12.8167,-18.98222 16.71373,-28.04745 -1.05967,-11.392456 -7.60354,-13.112944 -16.56999,-7.42348 -10.19526,6.46918 -20.610556,12.4277 -28.270266,21.67258 -6.88438,7.14676 -11.73909,15.85411 -14.9751,25.240864 -1.04026,3.01751 -3.04628,7.15473 0.0399,9.61689"
       id="path24642"
       sodipodi:nodetypes="cccscsc" />
    <g
       id="g14642"
       transform="rotate(32.054282,313.88141,103.62976)">
      <path
         style="display:inline;fill:#ffffff;stroke:#000000;stroke-width:4;stroke-linecap:butt;stroke-linejoin:miter;stroke-miterlimit:4;stroke-dasharray:none;stroke-opacity:1"
         d="m 252.94645,213.00355 c 5.40371,-15.83138 17.29009,-40.73725 26.86674,-54.71661 -8.84946,-7.97481 -26.19503,-17.67608 -42.2464,-22.43194 -11.93014,4.3113 -22.18474,41.35662 -26.02066,54.46626 z"
         id="path6168"
         sodipodi:nodetypes="ccccc"
         inkscape:export-filename="C:\Users\FrancescoCottone\Desktop\thejournalist.png"
         inkscape:export-xdpi="72.57"
         inkscape:export-ydpi="72.57" />
      <g
         id="g14633">
        <path
           style="fill:none;stroke:#000000;stroke-width:1;stroke-linecap:butt;stroke-linejoin:miter;stroke-miterlimit:4;stroke-dasharray:none;stroke-opacity:1"
           d="m 218.6608,181.26298 c 5.90472,3.62695 20.17477,9.54451 32.70767,14.98637"
           id="path933-42"
           sodipodi:nodetypes="cc" />
        <path
           style="fill:none;stroke:#000000;stroke-width:1;stroke-linecap:butt;stroke-linejoin:miter;stroke-miterlimit:4;stroke-dasharray:none;stroke-opacity:1"
           d="m 234.85238,147.4049 c 5.90472,3.62695 20.17477,9.54451 32.70767,14.98637"
           id="path933"
           sodipodi:nodetypes="cc" />
        <path
           style="fill:none;stroke:#000000;stroke-width:1;stroke-linecap:butt;stroke-linejoin:miter;stroke-miterlimit:4;stroke-dasharray:none;stroke-opacity:1"
           d="m 229.88029,155.12427 c 8.95498,6.02134 21.39082,10.20914 32.70767,14.98636"
           id="path933-9"
           sodipodi:nodetypes="cc" />
        <path
           style="fill:none;stroke:#000000;stroke-width:1;stroke-linecap:butt;stroke-linejoin:miter;stroke-miterlimit:4;stroke-dasharray:none;stroke-opacity:1"
           d="m 226.48115,163.08259 c 9.52797,5.63794 21.73322,10.0245 32.70767,14.98636"
           id="path933-4"
           sodipodi:nodetypes="cc" />
        <path
           style="fill:none;stroke:#000000;stroke-width:1;stroke-linecap:butt;stroke-linejoin:miter;stroke-miterlimit:4;stroke-dasharray:none;stroke-opacity:1"
           d="m 222.40644,171.60573 c 8.71834,6.14598 21.70188,10.04528 32.70767,14.98636"
           id="path933-3"
           sodipodi:nodetypes="cc" />
      </g>
    </g>
    <path
       style="display:inline;opacity:0.29505;fill:#000000;stroke:none;stroke-width:0.264583px;stroke-linecap:butt;stroke-linejoin:miter;stroke-opacity:1"
       d="m 117.65435,34.180637 c -9.35681,-14.673166 -33.332868,16.854479 -8.25705,8.925188 7.44233,-2.767127 14.38706,-9.804348 8.25705,-8.925188 z"
       id="path25643-3"
       sodipodi:nodetypes="ccc" />
    <path
       style="font-variation-settings:normal;display:inline;fill:none;fill-opacity:1;stroke:#000000;stroke-width:4;stroke-linecap:butt;stroke-linejoin:miter;stroke-miterlimit:4;stroke-dasharray:none;stroke-dashoffset:0;stroke-opacity:1;stop-color:#000000"
       d="m 76.921774,144.37906 37.153386,-17.46562 c 0,0 7.15845,-2.73305 8.8097,-9.45631 1.65123,-6.72328 2.40522,-8.12426 2.40522,-8.12426 10.0911,-11.545655 32.71961,-10.145164 39.7716,-4.01137 3.52337,3.06463 4.74163,6.08212 5.71071,10.43363 0.37779,7.81775 41.60976,30.31244 41.60976,30.31244"
       id="path1092"
       sodipodi:nodetypes="ccscscc"
       inkscape:export-filename="C:\Users\FrancescoCottone\Desktop\thejournalist.png"
       inkscape:export-xdpi="72.57"
       inkscape:export-ydpi="72.57" />
    <path
       style="fill:#e6e6e6;fill-opacity:1;stroke:#000000;stroke-width:4;stroke-linecap:butt;stroke-linejoin:miter;stroke-miterlimit:4;stroke-dasharray:none;stroke-opacity:1"
       d="m 101.72601,214.82673 c -17.201016,11.18259 -47.119846,-0.26572 -55.663675,-17.76874 -10.479718,-21.46891 5.911171,-56.29308 24.816751,-67.23671 38.831404,-22.47784 71.725064,44.94639 17.05207,44.30541 -15.698408,4.78696 14.410454,10.88417 24.716854,8.34738"
       id="path9046"
       sodipodi:nodetypes="cascc" />
    <path
       style="display:inline;opacity:0.29505;fill:#000000;stroke:none;stroke-width:0.264583px;stroke-linecap:butt;stroke-linejoin:miter;stroke-opacity:1"
       d="m 45.905703,196.949 c 1.45002,12.96108 22.727168,21.33825 31.898051,21.52654 4.328166,-1.02127 21.529455,-0.006 23.922256,-3.64881 -1.41606,-5.62414 -1.757715,-12.21984 -4.619091,-11.69595 -6.953948,7.86802 -31.136754,3.68737 -46.877606,-8.06659 -1.259737,-0.94067 -4.498408,0.32236 -4.32361,1.88481 z"
       id="path28536-8"
       sodipodi:nodetypes="scccss" />
    <path
       style="fill:#e6e6e6;fill-opacity:1;stroke:#000000;stroke-width:4;stroke-linecap:butt;stroke-linejoin:miter;stroke-miterlimit:4;stroke-dasharray:none;stroke-opacity:1"
       d="m 188.75228,209.58335 c 17.20102,11.18259 47.11985,-0.26572 55.66368,-17.76874 10.47971,-21.46891 -5.91118,-56.29308 -24.81676,-67.23671 -38.8314,-22.47784 -66.29949,48.1269 -11.62649,47.48592 15.6984,4.78696 -21.14565,9.38746 -31.45205,6.85067"
       id="path9046-4"
       sodipodi:nodetypes="cascc" />
    <ellipse
       style="display:inline;fill:#ffffff;fill-opacity:1;stroke:none;stroke-width:1;stroke-linecap:square;stroke-miterlimit:4;stroke-dasharray:none;paint-order:stroke fill markers"
       id="path41300"
       cx="78.600227"
       cy="160.80768"
       rx="3.7041667"
       ry="4.2333331" />
    <ellipse
       style="display:inline;fill:#ffffff;fill-opacity:1;stroke:none;stroke-width:1;stroke-linecap:square;stroke-miterlimit:4;stroke-dasharray:none;paint-order:stroke fill markers"
       id="path41298"
       cx="201.49922"
       cy="134.48164"
       rx="4.1010418"
       ry="3.8364582" />
    <path
       style="fill:#ff0000;stroke:#000000;stroke-width:4;stroke-linecap:butt;stroke-linejoin:miter;stroke-miterlimit:4;stroke-dasharray:none;stroke-opacity:1"
       d="m 149.15866,198.15503 -10.38341,39.41588 10.7576,10.88311 11.41241,-11.89477 z"
       id="path15648-3"
       sodipodi:nodetypes="ccccc" />
    <path
       style="fill:none;stroke:#000000;stroke-width:1;stroke-linecap:butt;stroke-linejoin:miter;stroke-miterlimit:4;stroke-dasharray:none;stroke-opacity:1"
       d="m 153.37327,211.3371 -12.41721,19.44153"
       id="path16519-7"
       sodipodi:nodetypes="cc" />
    <path
       style="fill:none;stroke:#000000;stroke-width:1;stroke-linecap:butt;stroke-linejoin:miter;stroke-miterlimit:4;stroke-dasharray:none;stroke-opacity:1"
       d="m 156.39403,219.46286 -13.53975,23.18329"
       id="path16519-7-4"
       sodipodi:nodetypes="cc" />
    <path
       style="display:inline;opacity:0.29505;fill:#000000;stroke:none;stroke-width:0.264583px;stroke-linecap:butt;stroke-linejoin:miter;stroke-opacity:1"
       d="m 128.99116,139.56554 c 1.45002,12.96108 8.96883,-0.35758 18.13971,-0.16929 4.32817,-1.02127 11.38375,6.55921 13.77655,2.9164 -1.41606,-5.62414 4.77654,-8.16363 1.91516,-7.63974 -4.12763,6.96081 15.69091,-2.13683 -15.59449,-8.90118 -1.53668,-0.33225 -18.41172,12.23136 -18.23693,13.79381 z"
       id="path28536-8-75"
       sodipodi:nodetypes="scccss" />
    <path
       style="fill:#ffffff;stroke:#000000;stroke-width:4;stroke-linecap:butt;stroke-linejoin:miter;stroke-miterlimit:4;stroke-dasharray:none;stroke-opacity:1"
       d="m 169.31658,134.77964 -4.29321,8.562 -6.52175,-12.12615"
       id="path9493-3"
       sodipodi:nodetypes="ccc" />
    <path
       style="fill:#ffffff;stroke:#000000;stroke-width:4;stroke-linecap:butt;stroke-linejoin:miter;stroke-miterlimit:4;stroke-dasharray:none;stroke-opacity:1"
       d="m 123.13517,136.55511 4.29321,8.562 5.02504,-11.47134"
       id="path9493"
       sodipodi:nodetypes="ccc" />
    <path
       style="display:inline;opacity:0.29505;fill:#000000;stroke:none;stroke-width:0.264583px;stroke-linecap:butt;stroke-linejoin:miter;stroke-opacity:1"
       d="m 244.55543,191.64795 c -1.45002,12.96108 -22.72717,21.33825 -31.89806,21.52654 -4.32816,-1.02127 -21.52946,-0.006 -23.92226,-3.64881 1.41606,-5.62414 1.75772,-12.21984 4.61909,-11.69595 6.95395,7.86802 31.13676,3.68737 46.87762,-8.06659 1.25973,-0.94067 4.4984,0.32236 4.32361,1.88481 z"
       id="path28536-8-7"
       sodipodi:nodetypes="scccss" />
    <path
       id="rect1180"
       style="opacity:1;fill:#ffffff;stroke:#000000;stroke-linecap:round"
       d="m 57.68387,75.313436 5.258622,-16.404161 4.968002,16.668751 8.466666,5.45578 -8.731249,5.47949 -4.968002,17.197924 -4.729455,-16.933334 -9.525,-5.74408 z"
       sodipodi:nodetypes="ccccccccc" />
    <path
       id="path908"
       style="opacity:1;fill:#ffffff;stroke:#000000;stroke-linecap:round"
       d="m 222.54907,59.238695 5.25862,-16.404161 4.968,16.668751 8.46667,5.45578 -8.73125,5.47949 -4.968,17.19792 -4.72946,-16.93333 -9.525,-5.74408 z"
       sodipodi:nodetypes="ccccccccc" />
    <path
       id="path910"
       style="opacity:1;fill:#ffffff;stroke:#000000;stroke-linecap:round"
       d="m 106.95786,174.19013 5.25862,-16.40416 4.968,16.66875 8.46667,5.45578 -8.73125,5.47949 -4.968,17.19792 -4.72946,-16.93333 -9.525,-5.74408 z"
       sodipodi:nodetypes="ccccccccc" />
    <path
       style="display:inline;fill:none;stroke:#000000;stroke-width:4.00001;stroke-linecap:butt;stroke-linejoin:miter;stroke-miterlimit:4;stroke-dasharray:none;stroke-opacity:1"
       d="m 145.37897,117.00588 c 0.3457,3.92132 0.32557,7.53123 0.75727,10.10281 9.73589,3.12429 22.09424,8.34159 31.6217,6.24801"
       id="path2384"
       inkscape:export-filename="C:\Users\FrancescoCottone\Desktop\thejournalist.png"
       inkscape:export-xdpi="72.57"
       inkscape:export-ydpi="72.57"
       sodipodi:nodetypes="ccc" />
    <path
       style="display:inline;fill:none;stroke:#000000;stroke-width:4;stroke-linecap:butt;stroke-linejoin:miter;stroke-miterlimit:4;stroke-dasharray:none;stroke-opacity:1"
       d="m 147.58495,125.08616 c -9.26945,5.23218 -20.46303,12.32526 -32.03224,11.2042"
       id="path2386"
       inkscape:export-filename="C:\Users\FrancescoCottone\Desktop\thejournalist.png"
       inkscape:export-xdpi="72.57"
       inkscape:export-ydpi="72.57"
       sodipodi:nodetypes="cc" />
    <path
       style="fill:#ff0000;stroke:#000000;stroke-width:4;stroke-linecap:butt;stroke-linejoin:miter;stroke-miterlimit:4;stroke-dasharray:none;stroke-opacity:1"
       d="m 149.10966,183.90816 -9.35442,3.92886 1.73992,16.29543 7.42742,2.03926 6.4159,-2.26679 2.56436,-15.31954 z"
       id="path15648"
       sodipodi:nodetypes="ccccccc" />
  </g>
</svg>
